<svg xmlns="http://www.w3.org/2000/svg" viewBox="0 0 800 320" style="background:#0d1117;border-radius:8px">
  <text x="400" y="20" text-anchor="middle" fill="#e6edf3" font-size="14" font-family="sans-serif">Portfolio vs Benchmark Performance</text>
  <line x1="10" y1="280" x2="790" y2="280" stroke="#30363d" stroke-width="1"/>
  <line x1="10" y1="20" x2="10" y2="280" stroke="#30363d" stroke-width="1"/>
  <text x="15" y="35" fill="#8b949e" font-size="10" font-family="sans-serif">$1179K</text>
  <text x="15" y="280" fill="#8b949e" font-size="10" font-family="sans-serif">$981K</text>
  <polyline points="10.0,242.9 18.8,225.5 27.5,226.9 36.3,208.5 45.1,205.6 53.8,189.6 62.6,185.4 71.3,161.5 80.1,142.6 88.9,158.9 97.6,176.4 106.4,188.9 115.2,150.9 123.9,151.1 132.7,150.7 141.5,163.0 150.2,180.3 159.0,178.2 167.8,202.6 176.5,197.0 185.3,204.1 194.0,214.5 202.8,246.0 211.6,246.2 220.3,246.2 229.1,261.6 237.9,267.0 246.6,249.3 255.4,235.4 264.2,224.4 272.9,216.5 281.7,234.2 290.4,232.5 299.2,229.7 308.0,230.6 316.7,232.1 325.5,228.5 334.3,231.7 343.0,206.4 351.8,236.3 360.6,224.6 369.3,230.3 378.1,214.2 386.9,206.6 395.6,209.7 404.4,211.2 413.1,195.9 421.9,192.4 430.7,181.5 439.4,173.0 448.2,163.5 457.0,152.9 465.7,176.7 474.5,170.5 483.3,165.2 492.0,146.1 500.8,146.3 509.6,151.4 518.3,147.0 527.1,140.3 535.8,139.3 544.6,146.9 553.4,127.2 562.1,119.6 570.9,105.9 579.7,102.0 588.4,127.2 597.2,126.5 606.0,134.5 614.7,140.4 623.5,115.9 632.2,139.7 641.0,117.6 649.8,111.0 658.5,108.3 667.3,94.9 676.1,85.7 684.8,61.7 693.6,67.8 702.4,73.3 711.1,60.4 719.9,35.4 728.7,54.4 737.4,43.4 746.2,36.2 754.9,55.7 763.7,79.5 772.5,87.2 781.2,99.8 790.0,105.9" fill="none" stroke="#58a6ff" stroke-width="2"/>
  <polyline points="10.0,249.1 18.8,243.1 27.5,248.6 36.3,234.9 45.1,218.5 53.8,220.2 62.6,227.6 71.3,228.5 80.1,212.3 88.9,208.4 97.6,218.2 106.4,197.6 115.2,197.9 123.9,191.5 132.7,181.8 141.5,189.4 150.2,207.4 159.0,200.0 167.8,195.1 176.5,182.6 185.3,168.5 194.0,160.7 202.8,169.1 211.6,183.3 220.3,181.1 229.1,198.8 237.9,207.3 246.6,208.6 255.4,211.8 264.2,212.8 272.9,220.0 281.7,205.7 290.4,188.1 299.2,187.7 308.0,181.6 316.7,179.3 325.5,197.4 334.3,181.1 343.0,174.7 351.8,165.1 360.6,179.1 369.3,184.1 378.1,186.7 386.9,190.9 395.6,196.9 404.4,198.6 413.1,197.3 421.9,194.6 430.7,187.0 439.4,189.8 448.2,194.3 457.0,188.0 465.7,185.1 474.5,205.6 483.3,213.9 492.0,214.7 500.8,212.7 509.6,215.2 518.3,227.3 527.1,229.4 535.8,213.0 544.6,211.9 553.4,204.4 562.1,199.8 570.9,210.6 579.7,212.1 588.4,209.3 597.2,199.3 606.0,200.4 614.7,211.1 623.5,216.6 632.2,194.7 641.0,173.1 649.8,176.8 658.5,173.5 667.3,161.3 676.1,142.8 684.8,128.6 693.6,133.1 702.4,137.0 711.1,142.6 719.9,118.5 728.7,117.0 737.4,122.4 746.2,114.1 754.9,125.8 763.7,128.5 772.5,134.4 781.2,129.6 790.0,130.7" fill="none" stroke="#f0883e" stroke-width="2"/>
  <rect x="600" y="290" width="12" height="12" fill="#58a6ff" rx="2"/>
  <text x="616" y="300" fill="#e6edf3" font-size="10" font-family="sans-serif">Portfolio</text>
  <rect x="700" y="290" width="12" height="12" fill="#f0883e" rx="2"/>
  <text x="716" y="300" fill="#e6edf3" font-size="10" font-family="sans-serif">Benchmark</text>
</svg>