<svg xmlns="http://www.w3.org/2000/svg" viewBox="0 0 800 320" style="background:#0d1117;border-radius:8px">
  <text x="400" y="20" text-anchor="middle" fill="#e6edf3" font-size="14" font-family="sans-serif">Portfolio vs Benchmark Performance</text>
  <line x1="10" y1="280" x2="790" y2="280" stroke="#30363d" stroke-width="1"/>
  <line x1="10" y1="20" x2="10" y2="280" stroke="#30363d" stroke-width="1"/>
  <text x="15" y="35" fill="#8b949e" font-size="10" font-family="sans-serif">$1202K</text>
  <text x="15" y="280" fill="#8b949e" font-size="10" font-family="sans-serif">$878K</text>
  <polyline points="10.0,184.0 18.8,176.1 27.5,192.7 36.3,206.2 45.1,211.1 53.8,212.2 62.6,219.7 71.3,217.5 80.1,205.5 88.9,196.4 97.6,202.5 106.4,196.8 115.2,192.5 123.9,182.0 132.7,177.4 141.5,183.7 150.2,174.5 159.0,170.7 167.8,151.9 176.5,141.7 185.3,158.0 194.0,166.8 202.8,161.0 211.6,153.2 220.3,160.6 229.1,154.3 237.9,153.8 246.6,158.4 255.4,153.9 264.2,146.4 272.9,141.3 281.7,131.5 290.4,140.3 299.2,139.2 308.0,153.2 316.7,142.6 325.5,135.5 334.3,131.8 343.0,118.8 351.8,105.5 360.6,104.8 369.3,103.8 378.1,100.7 386.9,108.3 395.6,93.4 404.4,95.0 413.1,87.4 421.9,88.1 430.7,93.1 439.4,95.7 448.2,92.4 457.0,93.7 465.7,90.6 474.5,89.2 483.3,96.7 492.0,94.9 500.8,87.5 509.6,72.0 518.3,78.6 527.1,87.5 535.8,100.4 544.6,94.3 553.4,97.8 562.1,78.0 570.9,89.1 579.7,90.5 588.4,92.6 597.2,106.5 606.0,103.4 614.7,93.5 623.5,93.4 632.2,88.5 641.0,73.6 649.8,63.7 658.5,64.3 667.3,57.9 676.1,62.1 684.8,62.2 693.6,50.0 702.4,46.2 711.1,33.4 719.9,38.9 728.7,40.0 737.4,29.5 746.2,43.5 754.9,55.1 763.7,42.9 772.5,48.3 781.2,59.3 790.0,65.2" fill="none" stroke="#58a6ff" stroke-width="2"/>
  <polyline points="10.0,183.7 18.8,193.0 27.5,196.1 36.3,199.1 45.1,205.0 53.8,219.5 62.6,224.0 71.3,223.0 80.1,236.5 88.9,252.7 97.6,256.8 106.4,258.0 115.2,260.0 123.9,257.2 132.7,263.8 141.5,250.7 150.2,253.6 159.0,250.7 167.8,240.9 176.5,240.1 185.3,241.4 194.0,240.5 202.8,246.2 211.6,253.2 220.3,252.8 229.1,258.5 237.9,263.1 246.6,266.7 255.4,264.1 264.2,263.2 272.9,263.2 281.7,264.7 290.4,263.3 299.2,267.4 308.0,268.6 316.7,265.6 325.5,267.2 334.3,269.2 343.0,264.9 351.8,272.9 360.6,265.4 369.3,266.7 378.1,262.2 386.9,260.2 395.6,255.3 404.4,261.7 413.1,256.3 421.9,253.1 430.7,245.0 439.4,241.4 448.2,232.9 457.0,234.1 465.7,244.5 474.5,243.7 483.3,245.4 492.0,249.3 500.8,252.4 509.6,264.0 518.3,267.8 527.1,262.6 535.8,267.4 544.6,266.7 553.4,262.2 562.1,255.8 570.9,259.5 579.7,250.6 588.4,258.7 597.2,256.6 606.0,254.0 614.7,247.6 623.5,242.6 632.2,245.0 641.0,254.9 649.8,252.3 658.5,248.9 667.3,255.3 676.1,240.3 684.8,240.8 693.6,241.3 702.4,245.0 711.1,245.3 719.9,244.7 728.7,253.9 737.4,254.0 746.2,250.8 754.9,248.3 763.7,243.2 772.5,244.8 781.2,233.2 790.0,228.1" fill="none" stroke="#f0883e" stroke-width="2"/>
  <rect x="600" y="290" width="12" height="12" fill="#58a6ff" rx="2"/>
  <text x="616" y="300" fill="#e6edf3" font-size="10" font-family="sans-serif">Portfolio</text>
  <rect x="700" y="290" width="12" height="12" fill="#f0883e" rx="2"/>
  <text x="716" y="300" fill="#e6edf3" font-size="10" font-family="sans-serif">Benchmark</text>
</svg>