<svg xmlns="http://www.w3.org/2000/svg" viewBox="0 0 800 320" style="background:#0d1117;border-radius:8px">
  <text x="400" y="20" text-anchor="middle" fill="#e6edf3" font-size="14" font-family="sans-serif">Portfolio vs Benchmark Performance</text>
  <line x1="10" y1="280" x2="790" y2="280" stroke="#30363d" stroke-width="1"/>
  <line x1="10" y1="20" x2="10" y2="280" stroke="#30363d" stroke-width="1"/>
  <text x="15" y="35" fill="#8b949e" font-size="10" font-family="sans-serif">$1059K</text>
  <text x="15" y="280" fill="#8b949e" font-size="10" font-family="sans-serif">$941K</text>
  <polyline points="10.0,143.7 18.8,127.6 27.5,141.0 36.3,136.1 45.1,147.0 53.8,150.8 62.6,154.0 71.3,154.1 80.1,170.4 88.9,172.4 97.6,172.0 106.4,131.4 115.2,151.6 123.9,142.1 132.7,151.5 141.5,141.5 150.2,160.4 159.0,144.7 167.8,160.8 176.5,151.5 185.3,172.8 194.0,162.3 202.8,173.8 211.6,196.0 220.3,226.0 229.1,241.1 237.9,246.2 246.6,235.3 255.4,223.5 264.2,226.0 272.9,228.2 281.7,205.0 290.4,226.7 299.2,247.6 308.0,259.1 316.7,229.7 325.5,218.0 334.3,181.4 343.0,194.5 351.8,184.0 360.6,195.9 369.3,193.9 378.1,200.9 386.9,179.2 395.6,144.6 404.4,149.2 413.1,131.0 421.9,111.3 430.7,114.0 439.4,101.8 448.2,107.8 457.0,112.0 465.7,106.9 474.5,125.0 483.3,115.8 492.0,122.1 500.8,117.3 509.6,133.1 518.3,139.2 527.1,124.8 535.8,145.0 544.6,138.3 553.4,139.3 562.1,152.0 570.9,143.2 579.7,133.3 588.4,137.3 597.2,127.8 606.0,178.5 614.7,182.8 623.5,158.6 632.2,155.6 641.0,140.0 649.8,151.3 658.5,134.7 667.3,144.6 676.1,176.7 684.8,195.8 693.6,207.5 702.4,177.9 711.1,198.1 719.9,169.6 728.7,182.5 737.4,173.5 746.2,169.0 754.9,175.1 763.7,211.7 772.5,205.3 781.2,181.1 790.0,167.1" fill="none" stroke="#58a6ff" stroke-width="2"/>
  <polyline points="10.0,132.6 18.8,127.0 27.5,128.2 36.3,105.6 45.1,92.2 53.8,87.5 62.6,66.6 71.3,77.4 80.1,92.2 88.9,107.1 97.6,101.0 106.4,86.4 115.2,84.8 123.9,108.0 132.7,118.9 141.5,119.0 150.2,151.6 159.0,161.6 167.8,149.4 176.5,166.9 185.3,151.9 194.0,145.7 202.8,175.4 211.6,170.9 220.3,182.8 229.1,147.2 237.9,128.3 246.6,92.6 255.4,87.6 264.2,84.6 272.9,49.5 281.7,76.6 290.4,52.4 299.2,44.9 308.0,58.5 316.7,63.9 325.5,62.0 334.3,86.8 343.0,43.0 351.8,48.6 360.6,57.1 369.3,58.5 378.1,88.1 386.9,112.8 395.6,107.1 404.4,125.6 413.1,150.6 421.9,164.6 430.7,156.2 439.4,142.0 448.2,141.2 457.0,145.2 465.7,165.1 474.5,167.0 483.3,185.7 492.0,189.9 500.8,172.1 509.6,166.8 518.3,153.4 527.1,132.6 535.8,153.0 544.6,170.5 553.4,216.6 562.1,221.2 570.9,214.5 579.7,210.1 588.4,218.1 597.2,191.5 606.0,193.6 614.7,216.5 623.5,199.0 632.2,179.6 641.0,154.0 649.8,181.5 658.5,208.4 667.3,220.5 676.1,251.8 684.8,254.4 693.6,232.3 702.4,232.9 711.1,250.1 719.9,251.5 728.7,213.8 737.4,193.0 746.2,194.3 754.9,215.0 763.7,228.2 772.5,212.3 781.2,213.6 790.0,194.5" fill="none" stroke="#f0883e" stroke-width="2"/>
  <rect x="600" y="290" width="12" height="12" fill="#58a6ff" rx="2"/>
  <text x="616" y="300" fill="#e6edf3" font-size="10" font-family="sans-serif">Portfolio</text>
  <rect x="700" y="290" width="12" height="12" fill="#f0883e" rx="2"/>
  <text x="716" y="300" fill="#e6edf3" font-size="10" font-family="sans-serif">Benchmark</text>
</svg>