<svg xmlns="http://www.w3.org/2000/svg" viewBox="0 0 500 300" style="background:#0d1117;border-radius:8px">
  <text x="150" y="20" text-anchor="middle" fill="#e6edf3" font-size="14" font-family="sans-serif">Risk Allocation</text>
  <path d="M150,150 L150.0,50.0 A100,100 0 0,1 235.5,98.2 Z" fill="#58a6ff" opacity="0.85"/><rect x="320" y="30" width="12" height="12" fill="#58a6ff" rx="2"/><text x="338" y="40" fill="#e6edf3" font-size="11" font-family="sans-serif">Interest Rate (16.3%)</text><path d="M150,150 L235.5,98.2 A100,100 0 0,1 244.8,181.7 Z" fill="#f0883e" opacity="0.85"/><rect x="320" y="55" width="12" height="12" fill="#f0883e" rx="2"/><text x="338" y="65" fill="#e6edf3" font-size="11" font-family="sans-serif">Credit (13.8%)</text><path d="M150,150 L244.8,181.7 A100,100 0 0,1 133.1,248.6 Z" fill="#3fb950" opacity="0.85"/><rect x="320" y="80" width="12" height="12" fill="#3fb950" rx="2"/><text x="338" y="90" fill="#e6edf3" font-size="11" font-family="sans-serif">Liquidity (22.6%)</text><path d="M150,150 L133.1,248.6 A100,100 0 0,1 51.9,169.2 Z" fill="#d2a8ff" opacity="0.85"/><rect x="320" y="105" width="12" height="12" fill="#d2a8ff" rx="2"/><text x="338" y="115" fill="#e6edf3" font-size="11" font-family="sans-serif">FX (19.2%)</text><path d="M150,150 L51.9,169.2 A100,100 0 0,1 150.0,50.0 Z" fill="#f85149" opacity="0.85"/><rect x="320" y="130" width="12" height="12" fill="#f85149" rx="2"/><text x="338" y="140" fill="#e6edf3" font-size="11" font-family="sans-serif">Equity (28.1%)</text>
</svg>