<svg xmlns="http://www.w3.org/2000/svg" viewBox="0 0 800 320" style="background:#0d1117;border-radius:8px">
  <text x="400" y="20" text-anchor="middle" fill="#e6edf3" font-size="14" font-family="sans-serif">Portfolio vs Benchmark Performance</text>
  <line x1="10" y1="280" x2="790" y2="280" stroke="#30363d" stroke-width="1"/>
  <line x1="10" y1="20" x2="10" y2="280" stroke="#30363d" stroke-width="1"/>
  <text x="15" y="35" fill="#8b949e" font-size="10" font-family="sans-serif">$1043K</text>
  <text x="15" y="280" fill="#8b949e" font-size="10" font-family="sans-serif">$878K</text>
  <polyline points="10.0,68.5 18.8,46.5 27.5,48.8 36.3,37.9 45.1,36.3 53.8,46.8 62.6,71.3 71.3,60.4 80.1,80.6 88.9,73.2 97.6,88.6 106.4,118.1 115.2,127.1 123.9,145.3 132.7,148.8 141.5,169.4 150.2,153.9 159.0,170.9 167.8,184.4 176.5,183.4 185.3,175.0 194.0,183.0 202.8,198.0 211.6,200.8 220.3,193.0 229.1,196.0 237.9,212.0 246.6,212.4 255.4,193.3 264.2,204.7 272.9,198.8 281.7,196.8 290.4,206.9 299.2,225.5 308.0,207.4 316.7,202.8 325.5,194.9 334.3,200.2 343.0,217.5 351.8,198.5 360.6,197.5 369.3,183.9 378.1,188.8 386.9,203.8 395.6,211.7 404.4,216.2 413.1,219.3 421.9,194.9 430.7,184.3 439.4,173.2 448.2,186.4 457.0,187.2 465.7,201.0 474.5,188.2 483.3,182.6 492.0,193.3 500.8,201.4 509.6,209.9 518.3,206.2 527.1,225.8 535.8,245.9 544.6,219.3 553.4,222.2 562.1,201.9 570.9,213.7 579.7,206.9 588.4,207.3 597.2,232.4 606.0,224.4 614.7,206.1 623.5,205.3 632.2,213.1 641.0,217.4 649.8,241.0 658.5,232.7 667.3,212.3 676.1,212.9 684.8,206.3 693.6,196.9 702.4,216.3 711.1,207.6 719.9,215.1 728.7,203.4 737.4,205.9 746.2,203.5 754.9,193.3 763.7,205.1 772.5,202.7 781.2,193.0 790.0,187.6" fill="none" stroke="#58a6ff" stroke-width="2"/>
  <polyline points="10.0,108.4 18.8,101.0 27.5,86.6 36.3,110.0 45.1,122.8 53.8,108.0 62.6,100.1 71.3,97.3 80.1,86.3 88.9,85.5 97.6,77.3 106.4,111.9 115.2,96.5 123.9,107.9 132.7,101.1 141.5,114.6 150.2,130.2 159.0,134.7 167.8,127.6 176.5,116.1 185.3,116.0 194.0,118.3 202.8,126.1 211.6,135.4 220.3,137.9 229.1,144.1 237.9,153.4 246.6,133.9 255.4,136.0 264.2,125.1 272.9,132.5 281.7,135.7 290.4,148.3 299.2,164.4 308.0,170.7 316.7,174.2 325.5,166.8 334.3,166.4 343.0,179.6 351.8,184.5 360.6,168.5 369.3,178.6 378.1,183.4 386.9,181.1 395.6,190.4 404.4,177.4 413.1,193.0 421.9,191.0 430.7,205.3 439.4,182.3 448.2,188.3 457.0,190.6 465.7,178.6 474.5,187.3 483.3,185.7 492.0,187.5 500.8,182.1 509.6,185.5 518.3,177.5 527.1,170.3 535.8,179.7 544.6,212.5 553.4,209.3 562.1,219.3 570.9,202.1 579.7,194.1 588.4,208.4 597.2,211.1 606.0,216.1 614.7,208.3 623.5,212.6 632.2,221.4 641.0,193.2 649.8,205.9 658.5,200.6 667.3,199.1 676.1,206.6 684.8,189.8 693.6,191.2 702.4,177.9 711.1,195.2 719.9,208.6 728.7,222.5 737.4,251.6 746.2,252.4 754.9,266.0 763.7,260.9 772.5,261.3 781.2,237.0 790.0,241.0" fill="none" stroke="#f0883e" stroke-width="2"/>
  <rect x="600" y="290" width="12" height="12" fill="#58a6ff" rx="2"/>
  <text x="616" y="300" fill="#e6edf3" font-size="10" font-family="sans-serif">Portfolio</text>
  <rect x="700" y="290" width="12" height="12" fill="#f0883e" rx="2"/>
  <text x="716" y="300" fill="#e6edf3" font-size="10" font-family="sans-serif">Benchmark</text>
</svg>