<svg xmlns="http://www.w3.org/2000/svg" viewBox="0 0 800 320" style="background:#0d1117;border-radius:8px">
  <text x="400" y="20" text-anchor="middle" fill="#e6edf3" font-size="14" font-family="sans-serif">Portfolio vs Benchmark Performance</text>
  <line x1="10" y1="280" x2="790" y2="280" stroke="#30363d" stroke-width="1"/>
  <line x1="10" y1="20" x2="10" y2="280" stroke="#30363d" stroke-width="1"/>
  <text x="15" y="35" fill="#8b949e" font-size="10" font-family="sans-serif">$1154K</text>
  <text x="15" y="280" fill="#8b949e" font-size="10" font-family="sans-serif">$923K</text>
  <polyline points="10.0,191.8 18.8,193.1 27.5,201.7 36.3,194.4 45.1,196.7 53.8,199.4 62.6,184.9 71.3,187.2 80.1,190.3 88.9,190.3 97.6,190.3 106.4,197.0 115.2,213.7 123.9,215.3 132.7,209.6 141.5,195.4 150.2,208.1 159.0,200.5 167.8,220.4 176.5,217.4 185.3,225.3 194.0,232.3 202.8,230.1 211.6,219.9 220.3,215.0 229.1,232.8 237.9,235.2 246.6,237.5 255.4,216.4 264.2,205.3 272.9,211.4 281.7,198.0 290.4,220.5 299.2,228.0 308.0,218.1 316.7,213.8 325.5,210.9 334.3,228.0 343.0,231.8 351.8,232.2 360.6,236.4 369.3,233.1 378.1,224.3 386.9,219.9 395.6,226.8 404.4,217.1 413.1,214.3 421.9,185.6 430.7,186.9 439.4,194.6 448.2,192.2 457.0,190.2 465.7,185.6 474.5,189.7 483.3,181.1 492.0,187.3 500.8,187.7 509.6,188.8 518.3,201.5 527.1,195.4 535.8,199.4 544.6,190.8 553.4,213.8 562.1,227.6 570.9,214.6 579.7,211.6 588.4,214.7 597.2,240.8 606.0,247.5 614.7,252.7 623.5,269.5 632.2,253.2 641.0,256.9 649.8,250.9 658.5,259.9 667.3,260.2 676.1,248.7 684.8,268.3 693.6,257.3 702.4,242.0 711.1,248.0 719.9,245.3 728.7,243.3 737.4,231.8 746.2,254.1 754.9,247.9 763.7,251.0 772.5,246.9 781.2,254.3 790.0,255.6" fill="none" stroke="#58a6ff" stroke-width="2"/>
  <polyline points="10.0,184.3 18.8,182.0 27.5,194.2 36.3,183.4 45.1,189.1 53.8,195.8 62.6,178.6 71.3,165.6 80.1,165.3 88.9,166.6 97.6,167.7 106.4,162.9 115.2,161.2 123.9,158.8 132.7,170.2 141.5,156.7 150.2,147.5 159.0,147.2 167.8,143.8 176.5,132.4 185.3,133.0 194.0,122.2 202.8,124.1 211.6,127.5 220.3,109.6 229.1,94.0 237.9,84.0 246.6,92.9 255.4,95.4 264.2,97.4 272.9,102.6 281.7,99.7 290.4,117.0 299.2,125.5 308.0,132.2 316.7,109.7 325.5,91.3 334.3,86.1 343.0,84.4 351.8,65.0 360.6,68.8 369.3,76.2 378.1,60.1 386.9,59.3 395.6,40.7 404.4,33.5 413.1,32.9 421.9,33.8 430.7,43.2 439.4,58.4 448.2,49.4 457.0,47.4 465.7,50.6 474.5,46.8 483.3,48.4 492.0,66.1 500.8,81.5 509.6,80.2 518.3,90.1 527.1,90.8 535.8,79.2 544.6,77.7 553.4,75.6 562.1,62.8 570.9,56.3 579.7,76.8 588.4,80.5 597.2,86.1 606.0,90.1 614.7,87.1 623.5,67.0 632.2,77.2 641.0,64.5 649.8,59.9 658.5,58.4 667.3,68.6 676.1,67.0 684.8,77.6 693.6,83.2 702.4,62.6 711.1,62.4 719.9,64.8 728.7,71.8 737.4,63.1 746.2,69.6 754.9,83.7 763.7,95.1 772.5,100.0 781.2,93.8 790.0,97.7" fill="none" stroke="#f0883e" stroke-width="2"/>
  <rect x="600" y="290" width="12" height="12" fill="#58a6ff" rx="2"/>
  <text x="616" y="300" fill="#e6edf3" font-size="10" font-family="sans-serif">Portfolio</text>
  <rect x="700" y="290" width="12" height="12" fill="#f0883e" rx="2"/>
  <text x="716" y="300" fill="#e6edf3" font-size="10" font-family="sans-serif">Benchmark</text>
</svg>