<svg xmlns="http://www.w3.org/2000/svg" viewBox="0 0 800 320" style="background:#0d1117;border-radius:8px">
  <text x="400" y="20" text-anchor="middle" fill="#e6edf3" font-size="14" font-family="sans-serif">Portfolio vs Benchmark Performance</text>
  <line x1="10" y1="280" x2="790" y2="280" stroke="#30363d" stroke-width="1"/>
  <line x1="10" y1="20" x2="10" y2="280" stroke="#30363d" stroke-width="1"/>
  <text x="15" y="35" fill="#8b949e" font-size="10" font-family="sans-serif">$1092K</text>
  <text x="15" y="280" fill="#8b949e" font-size="10" font-family="sans-serif">$933K</text>
  <polyline points="10.0,167.0 18.8,144.7 27.5,167.5 36.3,184.3 45.1,161.5 53.8,164.1 62.6,168.7 71.3,169.4 80.1,159.7 88.9,160.5 97.6,170.1 106.4,166.3 115.2,130.0 123.9,133.9 132.7,114.2 141.5,140.3 150.2,155.2 159.0,158.9 167.8,165.3 176.5,168.2 185.3,161.9 194.0,178.2 202.8,174.6 211.6,140.0 220.3,133.7 229.1,143.1 237.9,164.6 246.6,163.7 255.4,133.0 264.2,150.8 272.9,161.0 281.7,142.4 290.4,127.2 299.2,102.3 308.0,91.4 316.7,85.7 325.5,80.7 334.3,81.0 343.0,90.6 351.8,110.1 360.6,129.6 369.3,146.1 378.1,140.8 386.9,136.3 395.6,168.4 404.4,159.7 413.1,175.6 421.9,155.2 430.7,151.3 439.4,172.4 448.2,211.5 457.0,226.6 465.7,234.0 474.5,249.4 483.3,264.6 492.0,261.3 500.8,227.7 509.6,206.0 518.3,203.5 527.1,200.1 535.8,199.1 544.6,205.1 553.4,188.9 562.1,168.5 570.9,169.8 579.7,160.1 588.4,167.0 597.2,191.1 606.0,187.3 614.7,179.1 623.5,162.9 632.2,164.6 641.0,173.8 649.8,177.9 658.5,174.2 667.3,214.2 676.1,225.4 684.8,221.5 693.6,219.0 702.4,222.3 711.1,212.8 719.9,215.3 728.7,199.6 737.4,188.4 746.2,161.2 754.9,184.3 763.7,184.1 772.5,169.4 781.2,153.1 790.0,150.7" fill="none" stroke="#58a6ff" stroke-width="2"/>
  <polyline points="10.0,170.4 18.8,179.1 27.5,160.5 36.3,169.8 45.1,161.4 53.8,163.2 62.6,145.9 71.3,149.0 80.1,148.6 88.9,152.3 97.6,170.9 106.4,155.3 115.2,149.1 123.9,136.1 132.7,140.2 141.5,136.6 150.2,135.9 159.0,113.0 167.8,103.6 176.5,96.5 185.3,98.1 194.0,90.0 202.8,79.2 211.6,88.4 220.3,101.1 229.1,104.5 237.9,99.3 246.6,89.2 255.4,96.9 264.2,110.9 272.9,109.2 281.7,97.3 290.4,89.4 299.2,63.3 308.0,60.1 316.7,71.7 325.5,74.3 334.3,73.4 343.0,64.8 351.8,76.2 360.6,64.4 369.3,37.7 378.1,43.4 386.9,60.1 395.6,52.1 404.4,63.9 413.1,77.2 421.9,93.2 430.7,121.0 439.4,125.8 448.2,113.6 457.0,96.1 465.7,101.7 474.5,85.9 483.3,69.5 492.0,73.5 500.8,71.8 509.6,80.4 518.3,74.6 527.1,78.9 535.8,60.2 544.6,68.8 553.4,91.9 562.1,98.7 570.9,107.3 579.7,94.7 588.4,90.9 597.2,70.9 606.0,85.1 614.7,78.0 623.5,55.1 632.2,58.2 641.0,80.5 649.8,69.0 658.5,113.7 667.3,112.1 676.1,98.3 684.8,91.3 693.6,83.0 702.4,76.7 711.1,95.4 719.9,117.1 728.7,118.7 737.4,120.2 746.2,147.6 754.9,151.3 763.7,171.5 772.5,174.0 781.2,149.9 790.0,126.3" fill="none" stroke="#f0883e" stroke-width="2"/>
  <rect x="600" y="290" width="12" height="12" fill="#58a6ff" rx="2"/>
  <text x="616" y="300" fill="#e6edf3" font-size="10" font-family="sans-serif">Portfolio</text>
  <rect x="700" y="290" width="12" height="12" fill="#f0883e" rx="2"/>
  <text x="716" y="300" fill="#e6edf3" font-size="10" font-family="sans-serif">Benchmark</text>
</svg>