<svg xmlns="http://www.w3.org/2000/svg" viewBox="0 0 800 320" style="background:#0d1117;border-radius:8px">
  <text x="400" y="20" text-anchor="middle" fill="#e6edf3" font-size="14" font-family="sans-serif">Portfolio vs Benchmark Performance</text>
  <line x1="10" y1="280" x2="790" y2="280" stroke="#30363d" stroke-width="1"/>
  <line x1="10" y1="20" x2="10" y2="280" stroke="#30363d" stroke-width="1"/>
  <text x="15" y="35" fill="#8b949e" font-size="10" font-family="sans-serif">$1085K</text>
  <text x="15" y="280" fill="#8b949e" font-size="10" font-family="sans-serif">$903K</text>
  <polyline points="10.0,143.2 18.8,134.4 27.5,129.6 36.3,137.3 45.1,151.7 53.8,152.0 62.6,169.7 71.3,181.9 80.1,185.0 88.9,183.1 97.6,195.8 106.4,201.3 115.2,200.2 123.9,207.2 132.7,192.0 141.5,192.2 150.2,193.7 159.0,208.3 167.8,185.2 176.5,208.0 185.3,217.3 194.0,198.1 202.8,218.9 211.6,214.9 220.3,221.7 229.1,204.3 237.9,208.6 246.6,200.3 255.4,200.1 264.2,197.1 272.9,221.4 281.7,210.0 290.4,221.8 299.2,224.1 308.0,215.4 316.7,196.6 325.5,234.2 334.3,254.8 343.0,253.8 351.8,250.0 360.6,258.6 369.3,266.9 378.1,257.8 386.9,242.8 395.6,216.2 404.4,221.5 413.1,211.3 421.9,234.8 430.7,243.7 439.4,228.5 448.2,215.9 457.0,202.4 465.7,192.3 474.5,188.8 483.3,175.1 492.0,179.8 500.8,169.5 509.6,177.3 518.3,161.1 527.1,159.5 535.8,150.7 544.6,161.4 553.4,164.9 562.1,167.6 570.9,188.3 579.7,158.9 588.4,153.9 597.2,158.4 606.0,128.6 614.7,147.5 623.5,148.2 632.2,127.7 641.0,130.8 649.8,112.4 658.5,93.5 667.3,75.2 676.1,59.6 684.8,84.3 693.6,69.4 702.4,65.8 711.1,102.5 719.9,109.8 728.7,131.1 737.4,132.6 746.2,98.8 754.9,77.3 763.7,93.9 772.5,99.1 781.2,118.3 790.0,87.1" fill="none" stroke="#58a6ff" stroke-width="2"/>
  <polyline points="10.0,130.1 18.8,138.5 27.5,120.6 36.3,135.0 45.1,147.3 53.8,155.8 62.6,164.1 71.3,161.5 80.1,176.7 88.9,169.3 97.6,190.8 106.4,194.2 115.2,185.5 123.9,190.7 132.7,187.8 141.5,183.6 150.2,184.4 159.0,179.6 167.8,179.5 176.5,182.3 185.3,205.3 194.0,185.4 202.8,194.9 211.6,187.4 220.3,177.6 229.1,181.9 237.9,176.1 246.6,179.9 255.4,180.8 264.2,179.8 272.9,174.6 281.7,170.5 290.4,182.7 299.2,194.5 308.0,209.6 316.7,214.3 325.5,211.9 334.3,182.4 343.0,158.0 351.8,150.2 360.6,145.1 369.3,149.5 378.1,151.5 386.9,148.6 395.6,155.4 404.4,127.9 413.1,132.8 421.9,153.7 430.7,160.1 439.4,152.7 448.2,153.7 457.0,155.6 465.7,160.4 474.5,165.4 483.3,158.9 492.0,145.4 500.8,125.3 509.6,103.2 518.3,117.0 527.1,120.9 535.8,109.7 544.6,107.9 553.4,111.1 562.1,103.3 570.9,90.5 579.7,104.7 588.4,106.2 597.2,103.5 606.0,91.8 614.7,83.5 623.5,98.9 632.2,80.4 641.0,75.1 649.8,85.8 658.5,88.6 667.3,55.9 676.1,60.8 684.8,35.4 693.6,37.0 702.4,49.0 711.1,59.3 719.9,61.4 728.7,75.6 737.4,73.3 746.2,86.0 754.9,103.4 763.7,107.6 772.5,112.8 781.2,101.7 790.0,86.7" fill="none" stroke="#f0883e" stroke-width="2"/>
  <rect x="600" y="290" width="12" height="12" fill="#58a6ff" rx="2"/>
  <text x="616" y="300" fill="#e6edf3" font-size="10" font-family="sans-serif">Portfolio</text>
  <rect x="700" y="290" width="12" height="12" fill="#f0883e" rx="2"/>
  <text x="716" y="300" fill="#e6edf3" font-size="10" font-family="sans-serif">Benchmark</text>
</svg>