<svg xmlns="http://www.w3.org/2000/svg" viewBox="0 0 800 320" style="background:#0d1117;border-radius:8px">
  <text x="400" y="20" text-anchor="middle" fill="#e6edf3" font-size="14" font-family="sans-serif">Portfolio vs Benchmark Performance</text>
  <line x1="10" y1="280" x2="790" y2="280" stroke="#30363d" stroke-width="1"/>
  <line x1="10" y1="20" x2="10" y2="280" stroke="#30363d" stroke-width="1"/>
  <text x="15" y="35" fill="#8b949e" font-size="10" font-family="sans-serif">$1095K</text>
  <text x="15" y="280" fill="#8b949e" font-size="10" font-family="sans-serif">$922K</text>
  <polyline points="10.0,165.8 18.8,157.2 27.5,178.8 36.3,196.0 45.1,223.9 53.8,266.1 62.6,242.4 71.3,220.2 80.1,212.7 88.9,195.0 97.6,187.1 106.4,211.2 115.2,219.6 123.9,236.4 132.7,220.4 141.5,211.4 150.2,218.2 159.0,216.8 167.8,219.5 176.5,204.0 185.3,191.9 194.0,205.0 202.8,222.9 211.6,213.1 220.3,179.1 229.1,192.3 237.9,192.9 246.6,193.1 255.4,195.2 264.2,171.0 272.9,174.3 281.7,150.1 290.4,163.9 299.2,156.8 308.0,174.6 316.7,193.7 325.5,193.6 334.3,185.0 343.0,152.5 351.8,139.0 360.6,151.1 369.3,144.1 378.1,162.7 386.9,173.7 395.6,159.6 404.4,161.9 413.1,133.8 421.9,128.0 430.7,154.5 439.4,158.0 448.2,191.3 457.0,184.1 465.7,185.5 474.5,176.2 483.3,214.6 492.0,198.6 500.8,235.8 509.6,233.8 518.3,237.5 527.1,222.6 535.8,208.6 544.6,163.6 553.4,164.7 562.1,151.6 570.9,171.2 579.7,165.6 588.4,132.9 597.2,135.9 606.0,126.3 614.7,156.5 623.5,183.0 632.2,184.6 641.0,144.0 649.8,133.4 658.5,126.4 667.3,101.4 676.1,99.2 684.8,82.6 693.6,113.0 702.4,104.4 711.1,98.2 719.9,86.7 728.7,77.9 737.4,69.5 746.2,69.5 754.9,62.4 763.7,63.8 772.5,55.9 781.2,47.1 790.0,74.3" fill="none" stroke="#58a6ff" stroke-width="2"/>
  <polyline points="10.0,165.1 18.8,170.3 27.5,187.3 36.3,213.1 45.1,216.5 53.8,211.1 62.6,222.8 71.3,236.7 80.1,228.1 88.9,208.8 97.6,212.0 106.4,203.7 115.2,190.2 123.9,188.3 132.7,202.7 141.5,199.4 150.2,193.1 159.0,192.3 167.8,165.3 176.5,188.7 185.3,178.5 194.0,167.9 202.8,162.0 211.6,184.0 220.3,207.5 229.1,210.6 237.9,199.6 246.6,189.9 255.4,175.0 264.2,177.3 272.9,189.9 281.7,195.8 290.4,184.2 299.2,182.0 308.0,182.7 316.7,173.2 325.5,176.8 334.3,183.3 343.0,155.5 351.8,132.5 360.6,141.6 369.3,130.6 378.1,126.5 386.9,131.8 395.6,120.5 404.4,117.1 413.1,108.7 421.9,104.0 430.7,106.8 439.4,102.5 448.2,90.0 457.0,93.9 465.7,74.9 474.5,71.8 483.3,59.1 492.0,55.4 500.8,50.8 509.6,60.3 518.3,58.0 527.1,36.2 535.8,43.3 544.6,52.5 553.4,80.5 562.1,66.6 570.9,91.7 579.7,110.2 588.4,104.2 597.2,102.0 606.0,112.5 614.7,109.7 623.5,107.1 632.2,106.8 641.0,91.6 649.8,99.2 658.5,112.6 667.3,132.7 676.1,144.6 684.8,150.6 693.6,134.7 702.4,134.0 711.1,132.2 719.9,129.0 728.7,135.6 737.4,145.0 746.2,160.8 754.9,168.9 763.7,172.0 772.5,167.0 781.2,185.8 790.0,178.5" fill="none" stroke="#f0883e" stroke-width="2"/>
  <rect x="600" y="290" width="12" height="12" fill="#58a6ff" rx="2"/>
  <text x="616" y="300" fill="#e6edf3" font-size="10" font-family="sans-serif">Portfolio</text>
  <rect x="700" y="290" width="12" height="12" fill="#f0883e" rx="2"/>
  <text x="716" y="300" fill="#e6edf3" font-size="10" font-family="sans-serif">Benchmark</text>
</svg>