<svg xmlns="http://www.w3.org/2000/svg" viewBox="0 0 500 300" style="background:#0d1117;border-radius:8px">
  <text x="150" y="20" text-anchor="middle" fill="#e6edf3" font-size="14" font-family="sans-serif">Risk Allocation</text>
  <path d="M150,150 L150.0,50.0 A100,100 0 0,1 248.9,135.0 Z" fill="#58a6ff" opacity="0.85"/><rect x="320" y="30" width="12" height="12" fill="#58a6ff" rx="2"/><text x="338" y="40" fill="#e6edf3" font-size="11" font-family="sans-serif">Interest Rate (22.6%)</text><path d="M150,150 L248.9,135.0 A100,100 0 0,1 190.0,241.6 Z" fill="#f0883e" opacity="0.85"/><rect x="320" y="55" width="12" height="12" fill="#f0883e" rx="2"/><text x="338" y="65" fill="#e6edf3" font-size="11" font-family="sans-serif">Credit (20.8%)</text><path d="M150,150 L190.0,241.6 A100,100 0 0,1 72.9,213.7 Z" fill="#3fb950" opacity="0.85"/><rect x="320" y="80" width="12" height="12" fill="#3fb950" rx="2"/><text x="338" y="90" fill="#e6edf3" font-size="11" font-family="sans-serif">Liquidity (20.6%)</text><path d="M150,150 L72.9,213.7 A100,100 0 0,1 65.6,96.3 Z" fill="#d2a8ff" opacity="0.85"/><rect x="320" y="105" width="12" height="12" fill="#d2a8ff" rx="2"/><text x="338" y="115" fill="#e6edf3" font-size="11" font-family="sans-serif">FX (20.0%)</text><path d="M150,150 L65.6,96.3 A100,100 0 0,1 150.0,50.0 Z" fill="#f85149" opacity="0.85"/><rect x="320" y="130" width="12" height="12" fill="#f85149" rx="2"/><text x="338" y="140" fill="#e6edf3" font-size="11" font-family="sans-serif">Equity (16.0%)</text>
</svg>