<svg xmlns="http://www.w3.org/2000/svg" viewBox="0 0 800 320" style="background:#0d1117;border-radius:8px">
  <text x="400" y="20" text-anchor="middle" fill="#e6edf3" font-size="14" font-family="sans-serif">Portfolio vs Benchmark Performance</text>
  <line x1="10" y1="280" x2="790" y2="280" stroke="#30363d" stroke-width="1"/>
  <line x1="10" y1="20" x2="10" y2="280" stroke="#30363d" stroke-width="1"/>
  <text x="15" y="35" fill="#8b949e" font-size="10" font-family="sans-serif">$1057K</text>
  <text x="15" y="280" fill="#8b949e" font-size="10" font-family="sans-serif">$869K</text>
  <polyline points="10.0,105.2 18.8,104.8 27.5,122.8 36.3,113.3 45.1,105.9 53.8,90.9 62.6,89.8 71.3,73.0 80.1,102.1 88.9,89.9 97.6,65.4 106.4,57.8 115.2,51.8 123.9,40.9 132.7,34.5 141.5,44.3 150.2,36.0 159.0,42.5 167.8,52.7 176.5,55.7 185.3,52.1 194.0,74.4 202.8,72.6 211.6,75.6 220.3,77.5 229.1,76.7 237.9,100.2 246.6,120.5 255.4,121.3 264.2,125.8 272.9,144.3 281.7,133.0 290.4,113.1 299.2,106.6 308.0,108.6 316.7,103.6 325.5,116.5 334.3,108.8 343.0,105.1 351.8,131.7 360.6,142.1 369.3,129.5 378.1,156.6 386.9,166.2 395.6,169.1 404.4,165.5 413.1,161.0 421.9,170.0 430.7,176.8 439.4,162.4 448.2,155.7 457.0,146.7 465.7,146.0 474.5,154.8 483.3,171.3 492.0,165.2 500.8,163.7 509.6,154.2 518.3,169.1 527.1,192.2 535.8,176.9 544.6,200.4 553.4,204.1 562.1,208.7 570.9,212.4 579.7,229.5 588.4,246.4 597.2,233.1 606.0,238.9 614.7,217.2 623.5,228.9 632.2,238.7 641.0,236.4 649.8,239.1 658.5,246.4 667.3,241.6 676.1,252.6 684.8,249.7 693.6,255.2 702.4,267.9 711.1,261.6 719.9,240.5 728.7,238.7 737.4,223.2 746.2,240.7 754.9,241.7 763.7,238.7 772.5,229.8 781.2,223.8 790.0,198.8" fill="none" stroke="#58a6ff" stroke-width="2"/>
  <polyline points="10.0,109.6 18.8,107.4 27.5,93.7 36.3,93.1 45.1,84.9 53.8,92.9 62.6,100.5 71.3,93.5 80.1,111.2 88.9,115.3 97.6,107.3 106.4,104.3 115.2,84.7 123.9,74.7 132.7,85.7 141.5,104.1 150.2,93.2 159.0,100.6 167.8,123.2 176.5,111.2 185.3,126.2 194.0,130.8 202.8,134.2 211.6,136.0 220.3,120.2 229.1,115.7 237.9,113.4 246.6,98.9 255.4,125.9 264.2,138.2 272.9,149.6 281.7,168.7 290.4,151.5 299.2,159.6 308.0,151.4 316.7,143.1 325.5,135.3 334.3,127.6 343.0,125.1 351.8,132.3 360.6,140.7 369.3,147.0 378.1,140.2 386.9,138.4 395.6,113.8 404.4,110.0 413.1,114.4 421.9,125.1 430.7,143.7 439.4,140.4 448.2,145.8 457.0,129.4 465.7,130.5 474.5,140.3 483.3,157.2 492.0,149.4 500.8,126.4 509.6,130.8 518.3,120.3 527.1,121.6 535.8,116.4 544.6,128.1 553.4,116.3 562.1,110.0 570.9,99.0 579.7,79.9 588.4,75.1 597.2,78.6 606.0,83.5 614.7,97.2 623.5,95.8 632.2,101.0 641.0,88.5 649.8,65.4 658.5,54.7 667.3,62.3 676.1,69.5 684.8,56.9 693.6,54.7 702.4,53.1 711.1,57.2 719.9,65.9 728.7,61.0 737.4,60.1 746.2,55.7 754.9,43.6 763.7,40.7 772.5,37.8 781.2,47.1 790.0,47.8" fill="none" stroke="#f0883e" stroke-width="2"/>
  <rect x="600" y="290" width="12" height="12" fill="#58a6ff" rx="2"/>
  <text x="616" y="300" fill="#e6edf3" font-size="10" font-family="sans-serif">Portfolio</text>
  <rect x="700" y="290" width="12" height="12" fill="#f0883e" rx="2"/>
  <text x="716" y="300" fill="#e6edf3" font-size="10" font-family="sans-serif">Benchmark</text>
</svg>