<svg xmlns="http://www.w3.org/2000/svg" viewBox="0 0 800 320" style="background:#0d1117;border-radius:8px">
  <text x="400" y="20" text-anchor="middle" fill="#e6edf3" font-size="14" font-family="sans-serif">Portfolio vs Benchmark Performance</text>
  <line x1="10" y1="280" x2="790" y2="280" stroke="#30363d" stroke-width="1"/>
  <line x1="10" y1="20" x2="10" y2="280" stroke="#30363d" stroke-width="1"/>
  <text x="15" y="35" fill="#8b949e" font-size="10" font-family="sans-serif">$1127K</text>
  <text x="15" y="280" fill="#8b949e" font-size="10" font-family="sans-serif">$960K</text>
  <polyline points="10.0,193.0 18.8,202.9 27.5,191.9 36.3,191.1 45.1,185.1 53.8,174.1 62.6,172.5 71.3,163.0 80.1,192.3 88.9,177.0 97.6,186.5 106.4,172.1 115.2,144.9 123.9,127.7 132.7,141.1 141.5,140.4 150.2,125.4 159.0,117.4 167.8,124.6 176.5,135.9 185.3,146.5 194.0,151.6 202.8,143.4 211.6,151.8 220.3,149.4 229.1,154.4 237.9,112.7 246.6,129.1 255.4,124.1 264.2,147.6 272.9,147.0 281.7,139.6 290.4,157.5 299.2,131.9 308.0,116.9 316.7,115.5 325.5,121.2 334.3,103.1 343.0,148.9 351.8,126.2 360.6,122.5 369.3,136.2 378.1,135.0 386.9,141.5 395.6,156.6 404.4,157.7 413.1,162.4 421.9,177.6 430.7,189.4 439.4,199.8 448.2,178.3 457.0,168.4 465.7,155.8 474.5,173.8 483.3,181.3 492.0,171.3 500.8,175.1 509.6,174.2 518.3,183.9 527.1,214.4 535.8,206.7 544.6,206.5 553.4,201.8 562.1,198.3 570.9,171.7 579.7,181.7 588.4,172.2 597.2,182.2 606.0,161.4 614.7,188.6 623.5,174.3 632.2,192.8 641.0,193.6 649.8,181.6 658.5,163.2 667.3,188.5 676.1,202.4 684.8,198.8 693.6,190.4 702.4,184.0 711.1,195.5 719.9,185.1 728.7,212.5 737.4,205.2 746.2,230.1 754.9,234.4 763.7,218.6 772.5,196.0 781.2,218.2 790.0,227.2" fill="none" stroke="#58a6ff" stroke-width="2"/>
  <polyline points="10.0,241.2 18.8,241.7 27.5,254.0 36.3,250.7 45.1,256.2 53.8,249.0 62.6,261.0 71.3,264.9 80.1,247.8 88.9,253.0 97.6,241.6 106.4,239.6 115.2,233.4 123.9,228.6 132.7,202.7 141.5,196.7 150.2,200.2 159.0,210.3 167.8,201.0 176.5,184.9 185.3,171.8 194.0,146.2 202.8,160.9 211.6,168.2 220.3,169.1 229.1,174.0 237.9,180.1 246.6,192.5 255.4,204.0 264.2,207.1 272.9,211.0 281.7,222.3 290.4,247.2 299.2,237.8 308.0,226.0 316.7,206.7 325.5,203.6 334.3,210.8 343.0,187.1 351.8,181.7 360.6,200.2 369.3,178.3 378.1,168.6 386.9,169.5 395.6,177.8 404.4,186.6 413.1,197.1 421.9,193.5 430.7,182.7 439.4,166.6 448.2,176.4 457.0,157.9 465.7,154.2 474.5,171.5 483.3,172.5 492.0,189.4 500.8,186.2 509.6,187.1 518.3,174.6 527.1,185.1 535.8,166.9 544.6,169.1 553.4,161.0 562.1,171.3 570.9,192.3 579.7,193.1 588.4,179.5 597.2,166.2 606.0,148.0 614.7,132.2 623.5,121.6 632.2,121.2 641.0,110.6 649.8,111.6 658.5,90.4 667.3,89.5 676.1,63.0 684.8,65.6 693.6,54.6 702.4,47.2 711.1,37.4 719.9,45.1 728.7,43.6 737.4,47.4 746.2,52.6 754.9,47.3 763.7,77.7 772.5,70.9 781.2,90.4 790.0,88.3" fill="none" stroke="#f0883e" stroke-width="2"/>
  <rect x="600" y="290" width="12" height="12" fill="#58a6ff" rx="2"/>
  <text x="616" y="300" fill="#e6edf3" font-size="10" font-family="sans-serif">Portfolio</text>
  <rect x="700" y="290" width="12" height="12" fill="#f0883e" rx="2"/>
  <text x="716" y="300" fill="#e6edf3" font-size="10" font-family="sans-serif">Benchmark</text>
</svg>