<svg xmlns="http://www.w3.org/2000/svg" viewBox="0 0 800 320" style="background:#0d1117;border-radius:8px">
  <text x="400" y="20" text-anchor="middle" fill="#e6edf3" font-size="14" font-family="sans-serif">Portfolio vs Benchmark Performance</text>
  <line x1="10" y1="280" x2="790" y2="280" stroke="#30363d" stroke-width="1"/>
  <line x1="10" y1="20" x2="10" y2="280" stroke="#30363d" stroke-width="1"/>
  <text x="15" y="35" fill="#8b949e" font-size="10" font-family="sans-serif">$1156K</text>
  <text x="15" y="280" fill="#8b949e" font-size="10" font-family="sans-serif">$987K</text>
  <polyline points="10.0,257.8 18.8,263.1 27.5,235.2 36.3,238.7 45.1,232.7 53.8,224.1 62.6,190.3 71.3,170.3 80.1,153.2 88.9,158.6 97.6,182.6 106.4,177.9 115.2,196.0 123.9,217.5 132.7,217.3 141.5,215.0 150.2,211.5 159.0,185.0 167.8,187.0 176.5,178.9 185.3,171.9 194.0,150.7 202.8,117.4 211.6,103.2 220.3,105.4 229.1,108.5 237.9,131.3 246.6,121.6 255.4,116.1 264.2,103.2 272.9,126.4 281.7,105.7 290.4,110.6 299.2,115.5 308.0,112.7 316.7,116.4 325.5,124.4 334.3,127.7 343.0,119.0 351.8,100.9 360.6,98.5 369.3,104.0 378.1,135.1 386.9,145.2 395.6,130.8 404.4,143.8 413.1,161.0 421.9,155.3 430.7,160.7 439.4,159.0 448.2,159.8 457.0,150.2 465.7,194.2 474.5,188.6 483.3,185.2 492.0,173.8 500.8,181.1 509.6,180.1 518.3,155.8 527.1,161.0 535.8,137.1 544.6,148.7 553.4,124.6 562.1,100.9 570.9,131.7 579.7,112.7 588.4,115.2 597.2,145.1 606.0,148.3 614.7,119.4 623.5,109.8 632.2,124.8 641.0,121.7 649.8,119.2 658.5,97.7 667.3,67.3 676.1,104.8 684.8,77.5 693.6,72.1 702.4,42.2 711.1,50.1 719.9,39.2 728.7,37.6 737.4,47.5 746.2,61.6 754.9,56.5 763.7,49.6 772.5,45.4 781.2,53.7 790.0,56.8" fill="none" stroke="#58a6ff" stroke-width="2"/>
  <polyline points="10.0,264.7 18.8,243.7 27.5,220.4 36.3,220.5 45.1,211.9 53.8,186.6 62.6,199.2 71.3,183.4 80.1,173.3 88.9,187.7 97.6,183.9 106.4,201.9 115.2,215.2 123.9,201.5 132.7,205.1 141.5,198.6 150.2,197.7 159.0,207.6 167.8,185.1 176.5,202.5 185.3,208.4 194.0,215.8 202.8,228.8 211.6,221.8 220.3,227.5 229.1,237.4 237.9,234.7 246.6,238.3 255.4,239.7 264.2,252.2 272.9,258.6 281.7,249.6 290.4,235.2 299.2,237.9 308.0,244.6 316.7,252.2 325.5,246.6 334.3,237.2 343.0,215.6 351.8,220.9 360.6,223.8 369.3,222.6 378.1,218.2 386.9,196.8 395.6,201.9 404.4,189.5 413.1,173.3 421.9,173.0 430.7,178.5 439.4,176.4 448.2,162.7 457.0,172.2 465.7,168.2 474.5,180.2 483.3,200.6 492.0,210.9 500.8,209.0 509.6,221.1 518.3,214.8 527.1,238.2 535.8,243.1 544.6,242.2 553.4,247.3 562.1,248.6 570.9,240.7 579.7,229.3 588.4,224.7 597.2,229.6 606.0,252.6 614.7,251.6 623.5,243.4 632.2,236.0 641.0,242.1 649.8,237.9 658.5,231.7 667.3,231.3 676.1,238.6 684.8,220.2 693.6,229.1 702.4,210.2 711.1,200.9 719.9,195.8 728.7,199.5 737.4,204.3 746.2,195.8 754.9,214.4 763.7,228.5 772.5,233.4 781.2,230.0 790.0,237.4" fill="none" stroke="#f0883e" stroke-width="2"/>
  <rect x="600" y="290" width="12" height="12" fill="#58a6ff" rx="2"/>
  <text x="616" y="300" fill="#e6edf3" font-size="10" font-family="sans-serif">Portfolio</text>
  <rect x="700" y="290" width="12" height="12" fill="#f0883e" rx="2"/>
  <text x="716" y="300" fill="#e6edf3" font-size="10" font-family="sans-serif">Benchmark</text>
</svg>