<svg xmlns="http://www.w3.org/2000/svg" viewBox="0 0 800 320" style="background:#0d1117;border-radius:8px">
  <text x="400" y="20" text-anchor="middle" fill="#e6edf3" font-size="14" font-family="sans-serif">Portfolio vs Benchmark Performance</text>
  <line x1="10" y1="280" x2="790" y2="280" stroke="#30363d" stroke-width="1"/>
  <line x1="10" y1="20" x2="10" y2="280" stroke="#30363d" stroke-width="1"/>
  <text x="15" y="35" fill="#8b949e" font-size="10" font-family="sans-serif">$1098K</text>
  <text x="15" y="280" fill="#8b949e" font-size="10" font-family="sans-serif">$966K</text>
  <polyline points="10.0,220.7 18.8,184.3 27.5,194.1 36.3,188.3 45.1,217.5 53.8,231.3 62.6,254.1 71.3,260.8 80.1,225.1 88.9,212.5 97.6,236.2 106.4,241.0 115.2,173.8 123.9,187.2 132.7,202.3 141.5,202.7 150.2,172.5 159.0,131.8 167.8,110.4 176.5,115.1 185.3,115.6 194.0,141.7 202.8,159.6 211.6,142.8 220.3,101.1 229.1,105.3 237.9,124.6 246.6,140.9 255.4,149.0 264.2,155.7 272.9,171.1 281.7,139.1 290.4,152.0 299.2,155.6 308.0,171.2 316.7,150.6 325.5,137.2 334.3,144.3 343.0,114.3 351.8,92.2 360.6,127.8 369.3,77.3 378.1,95.3 386.9,80.6 395.6,65.7 404.4,63.1 413.1,84.9 421.9,98.3 430.7,112.9 439.4,103.6 448.2,84.2 457.0,62.0 465.7,102.3 474.5,81.3 483.3,112.2 492.0,122.7 500.8,134.8 509.6,146.5 518.3,134.6 527.1,153.5 535.8,165.4 544.6,179.1 553.4,158.8 562.1,177.9 570.9,162.6 579.7,153.9 588.4,166.1 597.2,167.0 606.0,150.5 614.7,144.5 623.5,130.9 632.2,165.2 641.0,138.1 649.8,152.2 658.5,135.7 667.3,151.1 676.1,141.7 684.8,157.6 693.6,133.6 702.4,146.5 711.1,132.5 719.9,146.0 728.7,145.4 737.4,141.8 746.2,154.8 754.9,141.8 763.7,121.2 772.5,109.4 781.2,105.3 790.0,121.3" fill="none" stroke="#58a6ff" stroke-width="2"/>
  <polyline points="10.0,209.8 18.8,214.5 27.5,211.1 36.3,203.8 45.1,171.4 53.8,155.7 62.6,156.0 71.3,155.1 80.1,158.8 88.9,148.6 97.6,124.3 106.4,126.0 115.2,124.4 123.9,141.6 132.7,129.2 141.5,137.7 150.2,116.4 159.0,102.3 167.8,98.1 176.5,129.1 185.3,121.1 194.0,125.8 202.8,117.0 211.6,117.9 220.3,111.2 229.1,112.4 237.9,116.9 246.6,88.7 255.4,90.8 264.2,57.0 272.9,66.8 281.7,66.2 290.4,101.7 299.2,106.1 308.0,126.9 316.7,130.4 325.5,116.4 334.3,129.6 343.0,142.2 351.8,140.3 360.6,119.9 369.3,116.9 378.1,97.3 386.9,121.7 395.6,106.0 404.4,97.5 413.1,102.9 421.9,112.3 430.7,119.4 439.4,124.4 448.2,134.4 457.0,147.2 465.7,127.8 474.5,116.2 483.3,141.7 492.0,160.0 500.8,118.6 509.6,114.0 518.3,135.1 527.1,124.0 535.8,98.7 544.6,75.8 553.4,52.9 562.1,48.9 570.9,50.1 579.7,60.2 588.4,60.2 597.2,42.6 606.0,44.3 614.7,41.4 623.5,68.0 632.2,79.1 641.0,107.6 649.8,122.3 658.5,140.5 667.3,171.9 676.1,154.8 684.8,190.5 693.6,170.7 702.4,171.5 711.1,203.5 719.9,192.9 728.7,214.0 737.4,190.4 746.2,155.9 754.9,148.0 763.7,164.2 772.5,195.0 781.2,191.1 790.0,170.0" fill="none" stroke="#f0883e" stroke-width="2"/>
  <rect x="600" y="290" width="12" height="12" fill="#58a6ff" rx="2"/>
  <text x="616" y="300" fill="#e6edf3" font-size="10" font-family="sans-serif">Portfolio</text>
  <rect x="700" y="290" width="12" height="12" fill="#f0883e" rx="2"/>
  <text x="716" y="300" fill="#e6edf3" font-size="10" font-family="sans-serif">Benchmark</text>
</svg>