<svg xmlns="http://www.w3.org/2000/svg" viewBox="0 0 800 320" style="background:#0d1117;border-radius:8px">
  <text x="400" y="20" text-anchor="middle" fill="#e6edf3" font-size="14" font-family="sans-serif">Portfolio vs Benchmark Performance</text>
  <line x1="10" y1="280" x2="790" y2="280" stroke="#30363d" stroke-width="1"/>
  <line x1="10" y1="20" x2="10" y2="280" stroke="#30363d" stroke-width="1"/>
  <text x="15" y="35" fill="#8b949e" font-size="10" font-family="sans-serif">$1268K</text>
  <text x="15" y="280" fill="#8b949e" font-size="10" font-family="sans-serif">$894K</text>
  <polyline points="10.0,217.6 18.8,209.2 27.5,210.2 36.3,206.6 45.1,204.4 53.8,201.2 62.6,196.5 71.3,199.8 80.1,199.2 88.9,192.8 97.6,204.9 106.4,220.4 115.2,214.1 123.9,222.1 132.7,229.1 141.5,232.4 150.2,235.4 159.0,234.2 167.8,242.7 176.5,241.8 185.3,235.7 194.0,244.1 202.8,243.8 211.6,246.7 220.3,252.4 229.1,255.7 237.9,262.9 246.6,254.9 255.4,251.0 264.2,257.6 272.9,267.5 281.7,269.7 290.4,273.7 299.2,263.3 308.0,259.3 316.7,255.6 325.5,261.7 334.3,256.3 343.0,248.4 351.8,248.7 360.6,248.5 369.3,253.1 378.1,245.8 386.9,250.6 395.6,250.3 404.4,252.0 413.1,246.4 421.9,258.1 430.7,259.9 439.4,256.8 448.2,255.8 457.0,250.4 465.7,249.0 474.5,240.6 483.3,246.6 492.0,249.4 500.8,239.6 509.6,243.5 518.3,253.9 527.1,253.9 535.8,258.0 544.6,258.8 553.4,253.6 562.1,258.4 570.9,249.4 579.7,245.1 588.4,244.6 597.2,248.2 606.0,244.3 614.7,236.6 623.5,241.5 632.2,233.6 641.0,235.0 649.8,241.8 658.5,233.1 667.3,234.6 676.1,237.4 684.8,257.3 693.6,257.4 702.4,255.1 711.1,249.9 719.9,241.8 728.7,245.4 737.4,249.1 746.2,232.1 754.9,226.0 763.7,217.4 772.5,218.4 781.2,208.4 790.0,206.5" fill="none" stroke="#58a6ff" stroke-width="2"/>
  <polyline points="10.0,197.8 18.8,199.2 27.5,196.7 36.3,198.1 45.1,201.3 53.8,194.1 62.6,191.8 71.3,179.2 80.1,174.5 88.9,164.1 97.6,160.4 106.4,153.3 115.2,156.6 123.9,147.3 132.7,155.5 141.5,153.2 150.2,153.2 159.0,162.5 167.8,160.1 176.5,160.8 185.3,161.8 194.0,171.1 202.8,169.4 211.6,158.6 220.3,158.8 229.1,155.5 237.9,152.0 246.6,144.7 255.4,141.0 264.2,140.7 272.9,131.5 281.7,141.5 290.4,139.8 299.2,141.6 308.0,130.6 316.7,126.6 325.5,129.3 334.3,128.0 343.0,119.6 351.8,129.7 360.6,129.2 369.3,126.5 378.1,117.1 386.9,111.3 395.6,102.8 404.4,91.7 413.1,81.7 421.9,81.3 430.7,75.3 439.4,74.0 448.2,71.0 457.0,73.7 465.7,70.3 474.5,68.9 483.3,56.9 492.0,56.8 500.8,45.0 509.6,36.8 518.3,38.1 527.1,28.7 535.8,34.4 544.6,32.6 553.4,33.0 562.1,48.1 570.9,54.7 579.7,56.6 588.4,68.1 597.2,57.3 606.0,49.5 614.7,42.1 623.5,41.9 632.2,39.4 641.0,40.3 649.8,47.2 658.5,39.6 667.3,38.3 676.1,48.4 684.8,54.8 693.6,64.9 702.4,65.6 711.1,63.4 719.9,68.1 728.7,76.0 737.4,84.3 746.2,76.0 754.9,79.0 763.7,71.9 772.5,60.0 781.2,61.7 790.0,56.7" fill="none" stroke="#f0883e" stroke-width="2"/>
  <rect x="600" y="290" width="12" height="12" fill="#58a6ff" rx="2"/>
  <text x="616" y="300" fill="#e6edf3" font-size="10" font-family="sans-serif">Portfolio</text>
  <rect x="700" y="290" width="12" height="12" fill="#f0883e" rx="2"/>
  <text x="716" y="300" fill="#e6edf3" font-size="10" font-family="sans-serif">Benchmark</text>
</svg>