<svg xmlns="http://www.w3.org/2000/svg" viewBox="0 0 800 320" style="background:#0d1117;border-radius:8px">
  <text x="400" y="20" text-anchor="middle" fill="#e6edf3" font-size="14" font-family="sans-serif">Portfolio vs Benchmark Performance</text>
  <line x1="10" y1="280" x2="790" y2="280" stroke="#30363d" stroke-width="1"/>
  <line x1="10" y1="20" x2="10" y2="280" stroke="#30363d" stroke-width="1"/>
  <text x="15" y="35" fill="#8b949e" font-size="10" font-family="sans-serif">$1097K</text>
  <text x="15" y="280" fill="#8b949e" font-size="10" font-family="sans-serif">$878K</text>
  <polyline points="10.0,139.7 18.8,132.8 27.5,134.1 36.3,147.4 45.1,129.3 53.8,137.0 62.6,135.5 71.3,158.9 80.1,165.4 88.9,167.3 97.6,162.4 106.4,174.6 115.2,169.7 123.9,171.9 132.7,176.9 141.5,150.9 150.2,164.7 159.0,159.8 167.8,166.7 176.5,181.7 185.3,186.6 194.0,185.8 202.8,180.9 211.6,199.6 220.3,188.6 229.1,157.2 237.9,152.2 246.6,160.5 255.4,176.3 264.2,188.1 272.9,175.3 281.7,194.7 290.4,217.4 299.2,211.6 308.0,206.8 316.7,202.8 325.5,204.8 334.3,203.5 343.0,182.0 351.8,214.9 360.6,230.0 369.3,223.3 378.1,227.6 386.9,219.9 395.6,211.0 404.4,218.1 413.1,211.0 421.9,210.8 430.7,204.9 439.4,213.8 448.2,225.9 457.0,251.6 465.7,237.2 474.5,232.2 483.3,238.0 492.0,240.5 500.8,264.3 509.6,269.5 518.3,265.5 527.1,262.1 535.8,267.9 544.6,258.0 553.4,238.5 562.1,239.1 570.9,233.9 579.7,219.6 588.4,228.3 597.2,211.9 606.0,211.2 614.7,210.8 623.5,220.1 632.2,201.0 641.0,192.5 649.8,204.8 658.5,208.7 667.3,205.1 676.1,210.5 684.8,224.0 693.6,215.9 702.4,203.9 711.1,225.9 719.9,199.5 728.7,200.7 737.4,183.8 746.2,167.9 754.9,172.4 763.7,176.3 772.5,189.9 781.2,208.2 790.0,205.1" fill="none" stroke="#58a6ff" stroke-width="2"/>
  <polyline points="10.0,123.3 18.8,131.7 27.5,121.5 36.3,112.9 45.1,130.2 53.8,130.8 62.6,121.2 71.3,108.2 80.1,101.6 88.9,100.8 97.6,99.8 106.4,100.4 115.2,95.8 123.9,99.2 132.7,96.1 141.5,92.0 150.2,113.9 159.0,111.0 167.8,117.3 176.5,113.8 185.3,112.8 194.0,113.0 202.8,119.2 211.6,96.5 220.3,82.9 229.1,94.3 237.9,91.1 246.6,93.1 255.4,104.1 264.2,106.6 272.9,96.6 281.7,110.0 290.4,99.6 299.2,100.4 308.0,106.2 316.7,113.2 325.5,102.7 334.3,107.6 343.0,118.9 351.8,125.3 360.6,132.9 369.3,137.8 378.1,120.8 386.9,117.7 395.6,120.3 404.4,117.6 413.1,117.9 421.9,110.5 430.7,118.8 439.4,109.0 448.2,92.8 457.0,88.0 465.7,80.3 474.5,97.7 483.3,101.7 492.0,92.9 500.8,84.2 509.6,88.0 518.3,79.4 527.1,68.7 535.8,69.6 544.6,55.6 553.4,72.8 562.1,67.5 570.9,67.5 579.7,84.8 588.4,55.6 597.2,56.6 606.0,57.1 614.7,48.4 623.5,62.9 632.2,50.8 641.0,44.4 649.8,54.3 658.5,61.9 667.3,64.4 676.1,66.7 684.8,71.1 693.6,74.5 702.4,59.6 711.1,32.9 719.9,37.5 728.7,54.7 737.4,44.7 746.2,41.3 754.9,40.8 763.7,46.7 772.5,40.0 781.2,44.4 790.0,52.5" fill="none" stroke="#f0883e" stroke-width="2"/>
  <rect x="600" y="290" width="12" height="12" fill="#58a6ff" rx="2"/>
  <text x="616" y="300" fill="#e6edf3" font-size="10" font-family="sans-serif">Portfolio</text>
  <rect x="700" y="290" width="12" height="12" fill="#f0883e" rx="2"/>
  <text x="716" y="300" fill="#e6edf3" font-size="10" font-family="sans-serif">Benchmark</text>
</svg>