<svg xmlns="http://www.w3.org/2000/svg" viewBox="0 0 800 320" style="background:#0d1117;border-radius:8px">
  <text x="400" y="20" text-anchor="middle" fill="#e6edf3" font-size="14" font-family="sans-serif">Portfolio vs Benchmark Performance</text>
  <line x1="10" y1="280" x2="790" y2="280" stroke="#30363d" stroke-width="1"/>
  <line x1="10" y1="20" x2="10" y2="280" stroke="#30363d" stroke-width="1"/>
  <text x="15" y="35" fill="#8b949e" font-size="10" font-family="sans-serif">$1099K</text>
  <text x="15" y="280" fill="#8b949e" font-size="10" font-family="sans-serif">$914K</text>
  <polyline points="10.0,184.5 18.8,187.8 27.5,203.5 36.3,203.1 45.1,196.6 53.8,181.9 62.6,189.9 71.3,210.8 80.1,218.8 88.9,204.1 97.6,205.4 106.4,199.4 115.2,196.5 123.9,217.4 132.7,187.6 141.5,169.3 150.2,180.2 159.0,215.4 167.8,215.8 176.5,225.8 185.3,208.9 194.0,206.2 202.8,203.6 211.6,194.2 220.3,213.0 229.1,238.2 237.9,256.3 246.6,267.0 255.4,252.4 264.2,241.0 272.9,242.2 281.7,253.4 290.4,244.4 299.2,239.2 308.0,233.7 316.7,228.8 325.5,225.2 334.3,214.6 343.0,228.2 351.8,219.8 360.6,230.0 369.3,218.7 378.1,192.5 386.9,188.9 395.6,189.6 404.4,209.9 413.1,227.7 421.9,253.6 430.7,238.8 439.4,230.3 448.2,218.8 457.0,210.3 465.7,196.9 474.5,195.6 483.3,215.2 492.0,206.9 500.8,231.5 509.6,230.3 518.3,248.9 527.1,226.1 535.8,205.3 544.6,227.2 553.4,220.2 562.1,204.8 570.9,217.3 579.7,205.8 588.4,183.2 597.2,192.1 606.0,212.9 614.7,220.7 623.5,222.0 632.2,228.0 641.0,223.0 649.8,226.6 658.5,233.1 667.3,256.4 676.1,255.5 684.8,254.8 693.6,257.5 702.4,253.6 711.1,254.4 719.9,238.3 728.7,243.2 737.4,235.3 746.2,229.1 754.9,221.9 763.7,226.2 772.5,223.2 781.2,196.2 790.0,189.7" fill="none" stroke="#58a6ff" stroke-width="2"/>
  <polyline points="10.0,153.8 18.8,148.9 27.5,161.6 36.3,172.1 45.1,170.6 53.8,162.9 62.6,148.3 71.3,131.0 80.1,128.1 88.9,133.3 97.6,110.9 106.4,112.7 115.2,93.8 123.9,114.5 132.7,115.4 141.5,124.0 150.2,114.7 159.0,128.9 167.8,146.4 176.5,143.8 185.3,152.4 194.0,172.3 202.8,137.3 211.6,139.5 220.3,147.2 229.1,144.1 237.9,119.0 246.6,123.7 255.4,134.3 264.2,142.5 272.9,140.4 281.7,146.9 290.4,142.2 299.2,139.3 308.0,123.0 316.7,118.5 325.5,103.8 334.3,103.9 343.0,125.3 351.8,146.1 360.6,149.4 369.3,150.3 378.1,137.4 386.9,130.7 395.6,144.0 404.4,133.8 413.1,128.0 421.9,117.1 430.7,132.4 439.4,121.8 448.2,107.3 457.0,118.8 465.7,120.5 474.5,112.4 483.3,95.4 492.0,108.0 500.8,116.5 509.6,92.5 518.3,93.8 527.1,78.4 535.8,84.7 544.6,75.3 553.4,76.1 562.1,59.8 570.9,40.3 579.7,35.3 588.4,43.5 597.2,48.8 606.0,56.4 614.7,46.0 623.5,66.9 632.2,69.1 641.0,75.2 649.8,59.8 658.5,47.7 667.3,44.1 676.1,40.0 684.8,43.4 693.6,43.7 702.4,46.3 711.1,43.8 719.9,62.4 728.7,50.6 737.4,51.4 746.2,45.1 754.9,69.1 763.7,66.9 772.5,42.2 781.2,36.7 790.0,46.0" fill="none" stroke="#f0883e" stroke-width="2"/>
  <rect x="600" y="290" width="12" height="12" fill="#58a6ff" rx="2"/>
  <text x="616" y="300" fill="#e6edf3" font-size="10" font-family="sans-serif">Portfolio</text>
  <rect x="700" y="290" width="12" height="12" fill="#f0883e" rx="2"/>
  <text x="716" y="300" fill="#e6edf3" font-size="10" font-family="sans-serif">Benchmark</text>
</svg>