<svg xmlns="http://www.w3.org/2000/svg" viewBox="0 0 800 320" style="background:#0d1117;border-radius:8px">
  <text x="400" y="20" text-anchor="middle" fill="#e6edf3" font-size="14" font-family="sans-serif">Portfolio vs Benchmark Performance</text>
  <line x1="10" y1="280" x2="790" y2="280" stroke="#30363d" stroke-width="1"/>
  <line x1="10" y1="20" x2="10" y2="280" stroke="#30363d" stroke-width="1"/>
  <text x="15" y="35" fill="#8b949e" font-size="10" font-family="sans-serif">$1065K</text>
  <text x="15" y="280" fill="#8b949e" font-size="10" font-family="sans-serif">$942K</text>
  <polyline points="10.0,176.6 18.8,156.8 27.5,172.5 36.3,141.0 45.1,125.6 53.8,109.7 62.6,101.3 71.3,79.5 80.1,102.6 88.9,84.2 97.6,66.1 106.4,42.3 115.2,57.5 123.9,82.1 132.7,128.0 141.5,111.7 150.2,95.2 159.0,90.6 167.8,93.5 176.5,86.1 185.3,111.0 194.0,111.8 202.8,149.2 211.6,120.1 220.3,131.7 229.1,148.0 237.9,116.5 246.6,145.5 255.4,108.3 264.2,94.6 272.9,115.4 281.7,105.7 290.4,122.7 299.2,132.1 308.0,130.4 316.7,143.0 325.5,112.3 334.3,104.4 343.0,134.1 351.8,131.4 360.6,160.1 369.3,143.1 378.1,151.5 386.9,166.3 395.6,151.0 404.4,161.5 413.1,206.5 421.9,224.1 430.7,259.8 439.4,226.9 448.2,204.3 457.0,199.4 465.7,175.2 474.5,202.3 483.3,177.1 492.0,162.9 500.8,190.8 509.6,159.0 518.3,153.1 527.1,156.3 535.8,147.0 544.6,147.9 553.4,168.0 562.1,133.8 570.9,145.6 579.7,126.5 588.4,145.8 597.2,152.5 606.0,160.5 614.7,158.8 623.5,187.0 632.2,201.4 641.0,218.9 649.8,195.8 658.5,188.8 667.3,215.8 676.1,209.3 684.8,191.6 693.6,208.8 702.4,179.4 711.1,206.9 719.9,199.6 728.7,218.5 737.4,202.7 746.2,166.1 754.9,193.8 763.7,229.1 772.5,214.0 781.2,235.5 790.0,237.2" fill="none" stroke="#58a6ff" stroke-width="2"/>
  <polyline points="10.0,179.6 18.8,180.7 27.5,193.7 36.3,161.6 45.1,154.7 53.8,155.1 62.6,140.1 71.3,143.6 80.1,123.5 88.9,112.2 97.6,108.5 106.4,77.7 115.2,108.1 123.9,127.8 132.7,121.6 141.5,118.2 150.2,135.3 159.0,129.9 167.8,144.0 176.5,136.2 185.3,130.9 194.0,127.2 202.8,129.5 211.6,131.1 220.3,140.2 229.1,122.8 237.9,118.3 246.6,123.2 255.4,143.6 264.2,129.0 272.9,117.2 281.7,87.5 290.4,86.7 299.2,115.5 308.0,114.1 316.7,85.9 325.5,70.4 334.3,63.0 343.0,75.8 351.8,78.9 360.6,105.9 369.3,115.7 378.1,105.8 386.9,97.8 395.6,115.6 404.4,101.8 413.1,100.7 421.9,108.6 430.7,129.9 439.4,185.4 448.2,164.5 457.0,171.8 465.7,168.5 474.5,157.2 483.3,133.4 492.0,154.9 500.8,121.4 509.6,101.8 518.3,80.7 527.1,86.5 535.8,124.6 544.6,121.5 553.4,109.4 562.1,93.8 570.9,94.7 579.7,111.5 588.4,100.9 597.2,125.6 606.0,98.3 614.7,65.0 623.5,50.3 632.2,51.5 641.0,78.0 649.8,83.6 658.5,74.1 667.3,91.1 676.1,104.7 684.8,103.7 693.6,115.1 702.4,80.6 711.1,93.2 719.9,93.9 728.7,88.4 737.4,87.8 746.2,73.9 754.9,45.2 763.7,51.6 772.5,64.2 781.2,86.1 790.0,130.3" fill="none" stroke="#f0883e" stroke-width="2"/>
  <rect x="600" y="290" width="12" height="12" fill="#58a6ff" rx="2"/>
  <text x="616" y="300" fill="#e6edf3" font-size="10" font-family="sans-serif">Portfolio</text>
  <rect x="700" y="290" width="12" height="12" fill="#f0883e" rx="2"/>
  <text x="716" y="300" fill="#e6edf3" font-size="10" font-family="sans-serif">Benchmark</text>
</svg>