<svg xmlns="http://www.w3.org/2000/svg" viewBox="0 0 800 320" style="background:#0d1117;border-radius:8px">
  <text x="400" y="20" text-anchor="middle" fill="#e6edf3" font-size="14" font-family="sans-serif">Portfolio vs Benchmark Performance</text>
  <line x1="10" y1="280" x2="790" y2="280" stroke="#30363d" stroke-width="1"/>
  <line x1="10" y1="20" x2="10" y2="280" stroke="#30363d" stroke-width="1"/>
  <text x="15" y="35" fill="#8b949e" font-size="10" font-family="sans-serif">$1135K</text>
  <text x="15" y="280" fill="#8b949e" font-size="10" font-family="sans-serif">$945K</text>
  <polyline points="10.0,235.0 18.8,213.9 27.5,193.5 36.3,201.5 45.1,188.3 53.8,178.2 62.6,176.1 71.3,157.5 80.1,146.2 88.9,130.4 97.6,106.5 106.4,124.9 115.2,121.2 123.9,142.2 132.7,143.7 141.5,159.8 150.2,161.1 159.0,169.4 167.8,185.6 176.5,198.0 185.3,199.9 194.0,211.6 202.8,206.0 211.6,221.3 220.3,217.6 229.1,234.7 237.9,252.2 246.6,267.0 255.4,234.2 264.2,233.0 272.9,233.7 281.7,242.2 290.4,238.9 299.2,231.5 308.0,232.9 316.7,242.4 325.5,241.4 334.3,229.8 343.0,246.3 351.8,253.0 360.6,245.6 369.3,250.2 378.1,239.1 386.9,242.1 395.6,245.5 404.4,230.3 413.1,228.4 421.9,246.9 430.7,238.0 439.4,249.5 448.2,242.1 457.0,231.1 465.7,234.8 474.5,236.3 483.3,230.0 492.0,239.7 500.8,209.4 509.6,197.2 518.3,197.7 527.1,192.7 535.8,182.7 544.6,192.7 553.4,198.0 562.1,190.4 570.9,180.0 579.7,166.9 588.4,153.9 597.2,144.9 606.0,147.9 614.7,135.3 623.5,104.8 632.2,99.5 641.0,104.8 649.8,84.6 658.5,79.2 667.3,63.8 676.1,64.7 684.8,65.7 693.6,64.4 702.4,90.4 711.1,99.0 719.9,107.4 728.7,117.4 737.4,102.8 746.2,108.6 754.9,107.8 763.7,110.7 772.5,115.6 781.2,108.7 790.0,104.0" fill="none" stroke="#58a6ff" stroke-width="2"/>
  <polyline points="10.0,204.2 18.8,203.4 27.5,202.4 36.3,202.2 45.1,211.2 53.8,212.2 62.6,201.0 71.3,195.3 80.1,186.6 88.9,166.1 97.6,170.8 106.4,174.5 115.2,161.7 123.9,149.1 132.7,142.2 141.5,141.4 150.2,150.5 159.0,153.2 167.8,146.6 176.5,130.8 185.3,131.5 194.0,132.1 202.8,108.7 211.6,84.7 220.3,73.6 229.1,80.0 237.9,84.8 246.6,78.8 255.4,80.9 264.2,71.9 272.9,61.2 281.7,82.6 290.4,91.0 299.2,116.0 308.0,127.2 316.7,119.5 325.5,97.4 334.3,101.5 343.0,117.2 351.8,105.9 360.6,104.4 369.3,102.3 378.1,114.4 386.9,109.2 395.6,116.4 404.4,118.4 413.1,117.0 421.9,138.6 430.7,129.3 439.4,130.5 448.2,127.8 457.0,113.3 465.7,110.6 474.5,100.0 483.3,91.2 492.0,95.0 500.8,88.3 509.6,121.9 518.3,138.1 527.1,142.8 535.8,154.3 544.6,142.3 553.4,142.7 562.1,133.6 570.9,129.6 579.7,143.0 588.4,125.1 597.2,121.3 606.0,121.1 614.7,109.3 623.5,106.7 632.2,101.5 641.0,88.2 649.8,90.4 658.5,84.2 667.3,84.8 676.1,96.9 684.8,91.9 693.6,90.8 702.4,81.3 711.1,78.2 719.9,66.1 728.7,53.5 737.4,43.8 746.2,36.1 754.9,49.9 763.7,49.9 772.5,39.7 781.2,35.3 790.0,45.4" fill="none" stroke="#f0883e" stroke-width="2"/>
  <rect x="600" y="290" width="12" height="12" fill="#58a6ff" rx="2"/>
  <text x="616" y="300" fill="#e6edf3" font-size="10" font-family="sans-serif">Portfolio</text>
  <rect x="700" y="290" width="12" height="12" fill="#f0883e" rx="2"/>
  <text x="716" y="300" fill="#e6edf3" font-size="10" font-family="sans-serif">Benchmark</text>
</svg>