<svg xmlns="http://www.w3.org/2000/svg" viewBox="0 0 800 320" style="background:#0d1117;border-radius:8px">
  <text x="400" y="20" text-anchor="middle" fill="#e6edf3" font-size="14" font-family="sans-serif">Portfolio vs Benchmark Performance</text>
  <line x1="10" y1="280" x2="790" y2="280" stroke="#30363d" stroke-width="1"/>
  <line x1="10" y1="20" x2="10" y2="280" stroke="#30363d" stroke-width="1"/>
  <text x="15" y="35" fill="#8b949e" font-size="10" font-family="sans-serif">$1092K</text>
  <text x="15" y="280" fill="#8b949e" font-size="10" font-family="sans-serif">$945K</text>
  <polyline points="10.0,182.5 18.8,157.8 27.5,176.5 36.3,170.0 45.1,162.2 53.8,186.8 62.6,167.4 71.3,169.8 80.1,172.0 88.9,173.1 97.6,174.1 106.4,138.3 115.2,137.2 123.9,136.2 132.7,137.6 141.5,115.2 150.2,98.8 159.0,82.9 167.8,73.1 176.5,67.0 185.3,39.1 194.0,57.3 202.8,68.5 211.6,98.5 220.3,136.1 229.1,124.4 237.9,147.6 246.6,186.3 255.4,136.8 264.2,106.9 272.9,135.8 281.7,172.4 290.4,183.9 299.2,155.9 308.0,138.9 316.7,133.0 325.5,119.4 334.3,137.3 343.0,101.5 351.8,75.5 360.6,77.1 369.3,78.3 378.1,62.3 386.9,85.8 395.6,78.3 404.4,93.5 413.1,94.9 421.9,87.0 430.7,80.4 439.4,56.8 448.2,75.4 457.0,75.8 465.7,76.8 474.5,92.1 483.3,114.3 492.0,106.4 500.8,111.1 509.6,126.7 518.3,127.3 527.1,155.0 535.8,162.7 544.6,181.9 553.4,199.5 562.1,198.1 570.9,176.5 579.7,153.6 588.4,149.0 597.2,140.3 606.0,138.7 614.7,152.1 623.5,145.3 632.2,161.1 641.0,135.3 649.8,128.8 658.5,136.0 667.3,165.3 676.1,183.8 684.8,175.9 693.6,176.6 702.4,163.2 711.1,205.9 719.9,235.4 728.7,236.8 737.4,247.7 746.2,254.7 754.9,241.6 763.7,255.6 772.5,259.8 781.2,253.9 790.0,263.2" fill="none" stroke="#58a6ff" stroke-width="2"/>
  <polyline points="10.0,184.3 18.8,169.0 27.5,178.0 36.3,170.5 45.1,177.5 53.8,204.9 62.6,195.3 71.3,173.6 80.1,169.2 88.9,159.3 97.6,185.1 106.4,176.7 115.2,156.4 123.9,148.4 132.7,145.6 141.5,148.8 150.2,168.2 159.0,161.4 167.8,156.5 176.5,149.0 185.3,152.0 194.0,158.1 202.8,171.1 211.6,157.1 220.3,151.8 229.1,169.9 237.9,197.6 246.6,220.1 255.4,211.8 264.2,204.0 272.9,187.1 281.7,186.1 290.4,187.0 299.2,180.0 308.0,177.6 316.7,185.4 325.5,185.5 334.3,168.8 343.0,166.5 351.8,165.5 360.6,156.8 369.3,151.1 378.1,151.4 386.9,133.1 395.6,147.4 404.4,139.5 413.1,121.0 421.9,135.2 430.7,104.0 439.4,115.6 448.2,114.5 457.0,114.9 465.7,97.7 474.5,96.9 483.3,103.5 492.0,140.0 500.8,134.7 509.6,121.3 518.3,112.0 527.1,123.5 535.8,129.2 544.6,152.7 553.4,146.9 562.1,145.7 570.9,141.4 579.7,133.2 588.4,136.7 597.2,150.3 606.0,155.9 614.7,142.5 623.5,157.6 632.2,123.4 641.0,130.5 649.8,114.3 658.5,102.9 667.3,102.3 676.1,121.2 684.8,117.7 693.6,118.7 702.4,130.9 711.1,138.0 719.9,147.3 728.7,126.9 737.4,130.2 746.2,110.9 754.9,104.5 763.7,120.3 772.5,135.6 781.2,145.1 790.0,131.0" fill="none" stroke="#f0883e" stroke-width="2"/>
  <rect x="600" y="290" width="12" height="12" fill="#58a6ff" rx="2"/>
  <text x="616" y="300" fill="#e6edf3" font-size="10" font-family="sans-serif">Portfolio</text>
  <rect x="700" y="290" width="12" height="12" fill="#f0883e" rx="2"/>
  <text x="716" y="300" fill="#e6edf3" font-size="10" font-family="sans-serif">Benchmark</text>
</svg>