<svg xmlns="http://www.w3.org/2000/svg" viewBox="0 0 800 320" style="background:#0d1117;border-radius:8px">
  <text x="400" y="20" text-anchor="middle" fill="#e6edf3" font-size="14" font-family="sans-serif">Portfolio vs Benchmark Performance</text>
  <line x1="10" y1="280" x2="790" y2="280" stroke="#30363d" stroke-width="1"/>
  <line x1="10" y1="20" x2="10" y2="280" stroke="#30363d" stroke-width="1"/>
  <text x="15" y="35" fill="#8b949e" font-size="10" font-family="sans-serif">$1057K</text>
  <text x="15" y="280" fill="#8b949e" font-size="10" font-family="sans-serif">$933K</text>
  <polyline points="10.0,108.8 18.8,96.0 27.5,65.8 36.3,89.5 45.1,93.6 53.8,74.3 62.6,100.3 71.3,107.4 80.1,105.6 88.9,108.6 97.6,109.4 106.4,143.2 115.2,146.1 123.9,167.9 132.7,146.1 141.5,169.9 150.2,170.8 159.0,153.7 167.8,178.4 176.5,187.9 185.3,186.8 194.0,187.2 202.8,187.0 211.6,209.5 220.3,196.4 229.1,181.9 237.9,164.7 246.6,141.1 255.4,141.9 264.2,173.2 272.9,173.9 281.7,200.3 290.4,186.1 299.2,205.2 308.0,215.3 316.7,194.2 325.5,213.0 334.3,208.4 343.0,213.8 351.8,193.6 360.6,224.7 369.3,214.1 378.1,209.9 386.9,182.5 395.6,218.4 404.4,236.0 413.1,254.0 421.9,228.4 430.7,212.5 439.4,227.4 448.2,227.4 457.0,209.1 465.7,217.3 474.5,229.3 483.3,202.5 492.0,199.6 500.8,190.0 509.6,182.0 518.3,180.0 527.1,177.9 535.8,186.2 544.6,186.3 553.4,191.6 562.1,171.7 570.9,168.2 579.7,150.3 588.4,152.0 597.2,164.4 606.0,136.2 614.7,133.1 623.5,149.8 632.2,150.6 641.0,147.3 649.8,127.8 658.5,109.0 667.3,72.3 676.1,63.5 684.8,62.7 693.6,51.6 702.4,41.9 711.1,58.4 719.9,80.6 728.7,140.3 737.4,162.2 746.2,144.1 754.9,154.9 763.7,151.2 772.5,161.0 781.2,144.5 790.0,165.1" fill="none" stroke="#58a6ff" stroke-width="2"/>
  <polyline points="10.0,131.3 18.8,141.7 27.5,166.9 36.3,164.8 45.1,164.9 53.8,148.6 62.6,134.9 71.3,125.9 80.1,137.1 88.9,162.2 97.6,144.0 106.4,140.6 115.2,107.3 123.9,93.5 132.7,99.0 141.5,111.2 150.2,117.1 159.0,111.1 167.8,139.6 176.5,118.6 185.3,129.5 194.0,141.1 202.8,136.1 211.6,151.2 220.3,134.8 229.1,123.7 237.9,138.4 246.6,151.2 255.4,159.6 264.2,192.4 272.9,211.0 281.7,227.9 290.4,228.4 299.2,249.1 308.0,260.3 316.7,247.6 325.5,242.4 334.3,245.3 343.0,233.8 351.8,234.1 360.6,216.2 369.3,199.4 378.1,182.4 386.9,166.4 395.6,136.6 404.4,137.1 413.1,141.4 421.9,139.6 430.7,134.3 439.4,108.2 448.2,119.3 457.0,131.5 465.7,129.0 474.5,136.9 483.3,117.8 492.0,127.5 500.8,124.7 509.6,115.6 518.3,128.0 527.1,87.7 535.8,71.6 544.6,67.4 553.4,76.4 562.1,97.0 570.9,115.1 579.7,105.9 588.4,97.4 597.2,92.8 606.0,86.2 614.7,90.7 623.5,89.5 632.2,82.8 641.0,88.4 649.8,88.2 658.5,66.1 667.3,67.9 676.1,84.0 684.8,105.9 693.6,88.8 702.4,81.4 711.1,97.6 719.9,120.3 728.7,130.8 737.4,151.7 746.2,155.9 754.9,131.7 763.7,129.6 772.5,117.0 781.2,131.6 790.0,125.5" fill="none" stroke="#f0883e" stroke-width="2"/>
  <rect x="600" y="290" width="12" height="12" fill="#58a6ff" rx="2"/>
  <text x="616" y="300" fill="#e6edf3" font-size="10" font-family="sans-serif">Portfolio</text>
  <rect x="700" y="290" width="12" height="12" fill="#f0883e" rx="2"/>
  <text x="716" y="300" fill="#e6edf3" font-size="10" font-family="sans-serif">Benchmark</text>
</svg>