<svg xmlns="http://www.w3.org/2000/svg" viewBox="0 0 800 320" style="background:#0d1117;border-radius:8px">
  <text x="400" y="20" text-anchor="middle" fill="#e6edf3" font-size="14" font-family="sans-serif">Portfolio vs Benchmark Performance</text>
  <line x1="10" y1="280" x2="790" y2="280" stroke="#30363d" stroke-width="1"/>
  <line x1="10" y1="20" x2="10" y2="280" stroke="#30363d" stroke-width="1"/>
  <text x="15" y="35" fill="#8b949e" font-size="10" font-family="sans-serif">$1078K</text>
  <text x="15" y="280" fill="#8b949e" font-size="10" font-family="sans-serif">$864K</text>
  <polyline points="10.0,129.6 18.8,135.4 27.5,135.9 36.3,120.9 45.1,128.9 53.8,119.0 62.6,125.5 71.3,115.7 80.1,128.7 88.9,151.1 97.6,138.4 106.4,162.5 115.2,158.0 123.9,156.4 132.7,154.0 141.5,162.6 150.2,166.6 159.0,166.9 167.8,177.6 176.5,141.7 185.3,146.4 194.0,144.3 202.8,132.2 211.6,125.2 220.3,139.6 229.1,157.0 237.9,164.0 246.6,158.8 255.4,167.7 264.2,174.2 272.9,165.6 281.7,166.9 290.4,169.7 299.2,171.4 308.0,177.9 316.7,181.9 325.5,161.0 334.3,149.7 343.0,182.3 351.8,178.0 360.6,195.9 369.3,183.1 378.1,187.7 386.9,191.6 395.6,187.6 404.4,182.7 413.1,186.4 421.9,168.6 430.7,168.2 439.4,186.7 448.2,195.5 457.0,185.5 465.7,177.6 474.5,194.9 483.3,187.7 492.0,178.0 500.8,166.9 509.6,170.1 518.3,167.5 527.1,168.3 535.8,180.8 544.6,195.0 553.4,209.3 562.1,195.8 570.9,200.8 579.7,203.9 588.4,210.4 597.2,217.5 606.0,199.2 614.7,196.9 623.5,210.0 632.2,233.2 641.0,234.5 649.8,236.8 658.5,255.0 667.3,246.1 676.1,237.3 684.8,239.0 693.6,251.0 702.4,262.4 711.1,245.7 719.9,247.7 728.7,257.0 737.4,269.4 746.2,268.2 754.9,252.3 763.7,245.7 772.5,232.6 781.2,237.2 790.0,245.1" fill="none" stroke="#58a6ff" stroke-width="2"/>
  <polyline points="10.0,113.9 18.8,109.2 27.5,117.8 36.3,113.8 45.1,104.3 53.8,95.2 62.6,89.3 71.3,88.1 80.1,88.4 88.9,94.9 97.6,99.2 106.4,111.6 115.2,126.5 123.9,135.1 132.7,131.2 141.5,125.0 150.2,115.4 159.0,126.5 167.8,125.5 176.5,128.4 185.3,143.7 194.0,148.1 202.8,132.4 211.6,127.6 220.3,114.5 229.1,112.4 237.9,111.7 246.6,84.9 255.4,92.4 264.2,98.4 272.9,94.7 281.7,115.5 290.4,122.2 299.2,121.6 308.0,111.0 316.7,125.4 325.5,125.0 334.3,121.1 343.0,110.6 351.8,99.7 360.6,114.3 369.3,116.2 378.1,113.0 386.9,122.3 395.6,117.3 404.4,114.0 413.1,108.4 421.9,105.7 430.7,104.8 439.4,99.8 448.2,87.0 457.0,87.8 465.7,101.1 474.5,92.9 483.3,89.1 492.0,95.9 500.8,86.6 509.6,90.4 518.3,84.3 527.1,95.5 535.8,80.6 544.6,90.6 553.4,97.5 562.1,98.9 570.9,88.7 579.7,94.6 588.4,98.3 597.2,106.6 606.0,102.5 614.7,104.0 623.5,111.1 632.2,95.6 641.0,103.4 649.8,91.7 658.5,100.8 667.3,91.4 676.1,76.5 684.8,56.3 693.6,64.1 702.4,77.0 711.1,70.2 719.9,79.4 728.7,74.1 737.4,60.6 746.2,33.0 754.9,40.9 763.7,45.6 772.5,65.8 781.2,43.1 790.0,38.8" fill="none" stroke="#f0883e" stroke-width="2"/>
  <rect x="600" y="290" width="12" height="12" fill="#58a6ff" rx="2"/>
  <text x="616" y="300" fill="#e6edf3" font-size="10" font-family="sans-serif">Portfolio</text>
  <rect x="700" y="290" width="12" height="12" fill="#f0883e" rx="2"/>
  <text x="716" y="300" fill="#e6edf3" font-size="10" font-family="sans-serif">Benchmark</text>
</svg>