<svg xmlns="http://www.w3.org/2000/svg" viewBox="0 0 500 300" style="background:#0d1117;border-radius:8px">
  <text x="150" y="20" text-anchor="middle" fill="#e6edf3" font-size="14" font-family="sans-serif">Risk Allocation</text>
  <path d="M150,150 L150.0,50.0 A100,100 0 0,1 201.5,64.3 Z" fill="#58a6ff" opacity="0.85"/><rect x="320" y="30" width="12" height="12" fill="#58a6ff" rx="2"/><text x="338" y="40" fill="#e6edf3" font-size="11" font-family="sans-serif">Interest Rate (8.6%)</text><path d="M150,150 L201.5,64.3 A100,100 0 0,1 239.0,195.6 Z" fill="#f0883e" opacity="0.85"/><rect x="320" y="55" width="12" height="12" fill="#f0883e" rx="2"/><text x="338" y="65" fill="#e6edf3" font-size="11" font-family="sans-serif">Credit (23.9%)</text><path d="M150,150 L239.0,195.6 A100,100 0 0,1 119.3,245.2 Z" fill="#3fb950" opacity="0.85"/><rect x="320" y="80" width="12" height="12" fill="#3fb950" rx="2"/><text x="338" y="90" fill="#e6edf3" font-size="11" font-family="sans-serif">Liquidity (22.4%)</text><path d="M150,150 L119.3,245.2 A100,100 0 0,1 50.3,141.9 Z" fill="#d2a8ff" opacity="0.85"/><rect x="320" y="105" width="12" height="12" fill="#d2a8ff" rx="2"/><text x="338" y="115" fill="#e6edf3" font-size="11" font-family="sans-serif">FX (21.3%)</text><path d="M150,150 L50.3,141.9 A100,100 0 0,1 150.0,50.0 Z" fill="#f85149" opacity="0.85"/><rect x="320" y="130" width="12" height="12" fill="#f85149" rx="2"/><text x="338" y="140" fill="#e6edf3" font-size="11" font-family="sans-serif">Equity (23.7%)</text>
</svg>