<svg xmlns="http://www.w3.org/2000/svg" viewBox="0 0 800 320" style="background:#0d1117;border-radius:8px">
  <text x="400" y="20" text-anchor="middle" fill="#e6edf3" font-size="14" font-family="sans-serif">Portfolio vs Benchmark Performance</text>
  <line x1="10" y1="280" x2="790" y2="280" stroke="#30363d" stroke-width="1"/>
  <line x1="10" y1="20" x2="10" y2="280" stroke="#30363d" stroke-width="1"/>
  <text x="15" y="35" fill="#8b949e" font-size="10" font-family="sans-serif">$1252K</text>
  <text x="15" y="280" fill="#8b949e" font-size="10" font-family="sans-serif">$923K</text>
  <polyline points="10.0,218.1 18.8,218.8 27.5,221.8 36.3,231.6 45.1,218.6 53.8,226.7 62.6,208.9 71.3,205.3 80.1,200.6 88.9,189.6 97.6,192.9 106.4,203.7 115.2,203.8 123.9,186.1 132.7,185.6 141.5,194.2 150.2,187.1 159.0,197.0 167.8,194.2 176.5,196.0 185.3,206.9 194.0,212.9 202.8,198.1 211.6,200.9 220.3,211.6 229.1,211.6 237.9,205.7 246.6,188.6 255.4,188.0 264.2,184.2 272.9,169.6 281.7,182.2 290.4,182.8 299.2,173.4 308.0,178.4 316.7,170.2 325.5,174.3 334.3,175.8 343.0,184.9 351.8,170.5 360.6,170.5 369.3,188.7 378.1,179.9 386.9,177.7 395.6,178.2 404.4,183.0 413.1,165.8 421.9,150.9 430.7,143.8 439.4,137.5 448.2,141.6 457.0,143.7 465.7,136.1 474.5,137.2 483.3,135.9 492.0,122.6 500.8,103.3 509.6,117.4 518.3,115.4 527.1,107.1 535.8,102.4 544.6,92.3 553.4,95.0 562.1,106.3 570.9,102.2 579.7,87.3 588.4,84.9 597.2,89.2 606.0,93.5 614.7,92.6 623.5,107.5 632.2,104.2 641.0,90.0 649.8,82.0 658.5,73.7 667.3,60.7 676.1,54.3 684.8,64.5 693.6,50.9 702.4,49.0 711.1,41.7 719.9,47.5 728.7,55.1 737.4,39.4 746.2,35.7 754.9,29.8 763.7,34.7 772.5,44.5 781.2,58.3 790.0,68.5" fill="none" stroke="#58a6ff" stroke-width="2"/>
  <polyline points="10.0,212.7 18.8,210.2 27.5,211.5 36.3,206.7 45.1,213.6 53.8,212.1 62.6,218.1 71.3,220.4 80.1,234.3 88.9,240.7 97.6,241.7 106.4,235.2 115.2,236.1 123.9,240.6 132.7,236.5 141.5,242.9 150.2,232.5 159.0,228.0 167.8,239.0 176.5,234.9 185.3,234.9 194.0,226.3 202.8,234.3 211.6,227.7 220.3,233.6 229.1,236.9 237.9,239.4 246.6,245.6 255.4,246.8 264.2,251.8 272.9,255.6 281.7,254.7 290.4,259.5 299.2,258.3 308.0,257.7 316.7,253.2 325.5,259.8 334.3,265.5 343.0,258.0 351.8,254.3 360.6,245.0 369.3,241.7 378.1,242.4 386.9,237.0 395.6,242.9 404.4,239.9 413.1,246.4 421.9,265.3 430.7,268.1 439.4,270.3 448.2,271.8 457.0,271.6 465.7,272.6 474.5,272.6 483.3,272.1 492.0,263.9 500.8,261.5 509.6,262.6 518.3,267.0 527.1,269.4 535.8,266.6 544.6,267.9 553.4,271.5 562.1,268.6 570.9,270.4 579.7,268.1 588.4,266.3 597.2,253.0 606.0,259.0 614.7,263.0 623.5,260.5 632.2,258.2 641.0,260.2 649.8,261.4 658.5,256.9 667.3,247.6 676.1,239.5 684.8,240.3 693.6,231.7 702.4,232.0 711.1,234.5 719.9,225.8 728.7,234.0 737.4,237.5 746.2,239.5 754.9,239.5 763.7,232.2 772.5,239.4 781.2,235.7 790.0,238.1" fill="none" stroke="#f0883e" stroke-width="2"/>
  <rect x="600" y="290" width="12" height="12" fill="#58a6ff" rx="2"/>
  <text x="616" y="300" fill="#e6edf3" font-size="10" font-family="sans-serif">Portfolio</text>
  <rect x="700" y="290" width="12" height="12" fill="#f0883e" rx="2"/>
  <text x="716" y="300" fill="#e6edf3" font-size="10" font-family="sans-serif">Benchmark</text>
</svg>